<svg id="a02e6f9e-512e-4c6f-b5c5-b2bc50f8d1ed" data-name="Layer 1" xmlns="http://www.w3.org/2000/svg" width="865.76" height="682.89" viewBox="0 0 865.76 682.89"><g id="b7b434ba-64f6-4873-b6f9-c0b2b036fa03" data-name="freepik--background-complete--inject-198"><path d="M472.33,234.08c8.47,0,219.56-1.48,279.09-1.48,4.17,0-1.1-7.21-3.39-7.72-7.33-1.6-15-1.68-22.44-2.45a73.35,73.35,0,0,1-21.33-5.29c-5.87-2.47-11.72-5.34-18.08-6.41-12.27-1.92-23,4.81-34.57,7.68a26.08,26.08,0,0,1-20.94-2.87c-5.32-3.21-10.16-7-15.72-9.84A86.26,86.26,0,0,0,546,202.49,80.29,80.29,0,0,0,531,210.2c-5.63,3.7-10.48,8.41-16.13,12.07-12.5,8-27.94,5.45-41.58,10.08C472.45,232.67,471.6,234.08,472.33,234.08Z" fill="#ebebeb"/><path d="M460.2,45c11.22,0,199.33,1.23,211.16.86.85,0,1.3-1.28.46-1.69-7.47-3.69-15.91-3-23.65-5.57-4.57-1.6-7.37-4.51-10.53-8a21.69,21.69,0,0,0-9.79-6.41,20.72,20.72,0,0,0-10.66-.33c-3.81.91-7.13,3.09-10.77,4.47-9,3.41-17.82.17-24.28-6.51-5.32-5.51-10.56-10.72-17.79-13.69a23.56,23.56,0,0,0-18.84-.25C538.6,11,533.87,17.23,527.38,21c-7.67,4.48-16.87,3.43-25.35,4.8s-15,8.51-22.44,12.63a15.86,15.86,0,0,1-8.1,2.52,40.53,40.53,0,0,1-4.94-.71c-2.56-.32-5-.24-6.73,1.89C459.39,42.75,459.48,45,460.2,45Z" fill="#ebebeb"/><path d="M83.68,142.73c8.16,0,145.51.92,154.15.63.61,0,.95-.93.34-1.24-5.45-2.69-11.62-2.14-17.28-4.05-3.33-1.12-5.37-3.3-7.68-5.79a16.1,16.1,0,0,0-7.14-4.68,15.14,15.14,0,0,0-7.79-.24,69,69,0,0,0-7.87,3.21c-6.59,2.48-13,.13-17.71-4.81-3.89-4-7.71-7.82-13-10a17.17,17.17,0,0,0-13.75-.2c-5,2.28-8.51,6.88-13.23,9.62-5.61,3.29-12.33,2.5-18.51,3.49s-11,6.21-16.4,9.22a11.55,11.55,0,0,1-5.93,1.83,31.78,31.78,0,0,1-3.6-.5,4.91,4.91,0,0,0-4.91,1.38C83.15,141.13,83.15,142.73,83.68,142.73Z" fill="#ebebeb"/><path d="M594.13,146.31c8.17,0,145.53.91,154.15.62.63,0,1-.93.34-1.23-5.43-2.7-11.6-2.15-17.26-4.06-3.33-1.12-5.37-3.3-7.68-5.78a15.91,15.91,0,0,0-7.15-4.68,15.1,15.1,0,0,0-7.78-.24,67.19,67.19,0,0,0-7.87,3.2c-6.6,2.49-13,.13-17.73-4.81-3.88-4-7.71-7.82-13-10a17.16,17.16,0,0,0-13.76-.19c-5,2.27-8.5,6.87-13.23,9.61-5.6,3.21-12.32,2.5-18.52,3.5s-10.95,6.2-16.38,9.21a11.51,11.51,0,0,1-5.9,1.94,36.26,36.26,0,0,1-3.6-.51,4.92,4.92,0,0,0-4.91,1.39C593.54,144.69,593.6,146.31,594.13,146.31Z" fill="#ebebeb"/><path d="M218.21,280c8.18,0,145.53.92,154.17.63.61,0,.95-.93.34-1.24-5.45-2.69-11.62-2.14-17.28-4.05-3.33-1.12-5.37-3.3-7.67-5.79a16.19,16.19,0,0,0-7.15-4.68,15.14,15.14,0,0,0-7.79-.24,69,69,0,0,0-7.87,3.21c-6.58,2.48-13,.13-17.63-4.81-3.89-4-7.7-7.82-13-10a17.18,17.18,0,0,0-13.77-.19c-5,2.27-8.49,6.87-13.22,9.61-5.61,3.21-12.32,2.5-18.51,3.49s-11,6.21-16.39,9.22a11.61,11.61,0,0,1-5.93,1.83,33.74,33.74,0,0,1-3.61-.52,4.93,4.93,0,0,0-4.9,1.4C217.62,278.39,217.77,280,218.21,280Z" fill="#ebebeb"/><path d="M157.77,202.8c.16.46,216.5,0,213.76,0-1.23,0,1.89-1.86.68-2.47-7-3.49-14.75-3.59-22.44-4.3a34.43,34.43,0,0,1-13.11-3.2c-4.07-2.13-6.62-5.85-9.5-9.26a40.67,40.67,0,0,0-36.94-14c-15.39,2.42-27.52,14.13-42.92,16.28-9.26,1.3-18-2.27-27.07-3.54A33.09,33.09,0,0,0,199.91,186c-4.8,2.42-9.39,4.45-14.9,4.81-4.23.28-8.48-.2-12.73-.24a28.45,28.45,0,0,0-18.62,7.56C152.89,198.74,150.71,202.8,157.77,202.8Z" fill="#ebebeb"/></g><rect x="306.04" y="218.73" width="224.1" height="312.69" fill="#265CB1"/><rect x="306.04" y="218.73" width="224.1" height="312.69" fill="#fff" opacity="0.7" style="isolation:isolate"/><rect x="338.09" y="425.54" width="160" height="8.06" fill="#265CB1"/><rect x="369.21" y="433.6" width="97.85" height="91.43" fill="#2f2e41"/><rect x="375.8" y="440.35" width="84.68" height="84.68" opacity="0.5"/><g opacity="0.1"><polygon points="460.48 475.68 460.48 491.4 426.87 525.03 411.15 525.03 460.48 475.68" fill="#fff"/><polygon points="397.91 440.35 375.81 462.45 375.81 446.73 382.17 440.35 397.91 440.35" fill="#fff"/><polygon points="445.15 440.35 375.81 509.71 375.81 501.85 437.3 440.35 445.15 440.35" fill="#fff"/><polygon points="460.48 499.58 460.48 507.45 442.89 525.03 435.03 525.03 460.48 499.58" fill="#fff"/><polygon points="460.48 448.21 460.48 449.64 385.12 525.03 383.65 525.03 460.48 448.21" fill="#fff"/><polygon points="407.08 440.35 375.81 471.61 375.81 470.15 405.62 440.35 407.08 440.35" fill="#fff"/><polygon points="433.75 440.35 375.81 498.28 375.81 496.81 432.27 440.35 433.75 440.35" fill="#fff"/></g><rect x="415.43" y="440.35" width="5.45" height="84.68" fill="#2f2e41"/><rect x="341" y="252.83" width="34.94" height="54.15" fill="#2f2e41"/><rect x="344.61" y="256.8" width="27.74" height="46.22" opacity="0.5"/><rect x="336" y="306.98" width="44.94" height="7.79" fill="#265CB1"/><g opacity="0.1"><polygon points="372.35 256.8 372.35 262.51 344.59 290.26 344.59 279.7 367.51 256.8 372.35 256.8" fill="#fff"/><polygon points="372.35 291.07 372.35 296.34 365.67 303.02 360.39 303.02 372.35 291.07" fill="#fff"/><polygon points="353.94 256.8 344.59 266.15 344.59 260.86 348.65 256.8 353.94 256.8" fill="#fff"/><polygon points="372.35 282.8 372.35 284.5 353.81 303.02 352.11 303.02 372.35 282.8" fill="#fff"/></g><rect x="341" y="283.98" width="34.94" height="3.96" fill="#2f2e41"/><rect x="400.62" y="252.83" width="34.94" height="54.15" fill="#2f2e41"/><rect x="404.23" y="256.8" width="27.74" height="46.22" opacity="0.5"/><rect x="395.62" y="306.98" width="44.94" height="7.79" fill="#265CB1"/><g opacity="0.1"><polygon points="431.97 256.8 431.97 262.51 404.21 290.26 404.21 279.7 427.13 256.8 431.97 256.8" fill="#fff"/><polygon points="431.97 291.07 431.97 296.34 425.28 303.02 419.99 303.02 431.97 291.07" fill="#fff"/><polygon points="413.55 256.8 404.21 266.15 404.21 260.86 408.26 256.8 413.55 256.8" fill="#fff"/><polygon points="431.97 282.8 431.97 284.5 413.42 303.02 411.73 303.02 431.97 282.8" fill="#fff"/></g><rect x="400.62" y="283.98" width="34.94" height="3.96" fill="#2f2e41"/><rect x="460.24" y="252.83" width="34.94" height="54.15" fill="#2f2e41"/><rect x="463.84" y="256.8" width="27.74" height="46.22" opacity="0.5"/><rect x="455.24" y="306.98" width="44.94" height="7.79" fill="#265CB1"/><g opacity="0.1"><polygon points="491.58 256.8 491.58 262.51 463.82 290.26 463.82 279.7 486.74 256.8 491.58 256.8" fill="#fff"/><polygon points="491.58 291.07 491.58 296.34 484.9 303.02 479.63 303.02 491.58 291.07" fill="#fff"/><polygon points="473.17 256.8 463.82 266.15 463.82 260.86 467.88 256.8 473.17 256.8" fill="#fff"/><polygon points="491.58 282.8 491.58 284.5 473.04 303.02 471.34 303.02 491.58 282.8" fill="#fff"/></g><rect x="460.24" y="283.98" width="34.94" height="3.96" fill="#2f2e41"/><rect x="341" y="334.61" width="34.94" height="54.15" fill="#2f2e41"/><rect x="344.61" y="338.57" width="27.74" height="46.22" opacity="0.5"/><rect x="336" y="388.76" width="44.94" height="7.79" fill="#265CB1"/><g opacity="0.1"><polygon points="372.35 338.57 372.35 344.29 344.59 372.03 344.59 361.48 367.51 338.57 372.35 338.57" fill="#fff"/><polygon points="372.35 372.83 372.35 378.12 365.67 384.8 360.39 384.8 372.35 372.83" fill="#fff"/><polygon points="353.94 338.57 344.59 347.91 344.59 342.64 348.65 338.57 353.94 338.57" fill="#fff"/><polygon points="372.35 364.56 372.35 366.26 353.81 384.8 352.11 384.8 372.35 364.56" fill="#fff"/></g><rect x="341" y="365.76" width="34.94" height="3.96" fill="#2f2e41"/><rect x="400.62" y="334.61" width="34.94" height="54.15" fill="#2f2e41"/><rect x="404.23" y="338.57" width="27.74" height="46.22" opacity="0.5"/><rect x="395.62" y="388.76" width="44.94" height="7.79" fill="#265CB1"/><g opacity="0.1"><polygon points="431.97 338.57 431.97 344.29 404.21 372.03 404.21 361.48 427.13 338.57 431.97 338.57" fill="#fff"/><polygon points="431.97 372.83 431.97 378.12 425.28 384.8 419.99 384.8 431.97 372.83" fill="#fff"/><polygon points="413.55 338.57 404.21 347.91 404.21 342.64 408.26 338.57 413.55 338.57" fill="#fff"/><polygon points="431.97 364.56 431.97 366.26 413.42 384.8 411.73 384.8 431.97 364.56" fill="#fff"/></g><rect x="400.62" y="365.76" width="34.94" height="3.96" fill="#2f2e41"/><rect x="460.24" y="334.61" width="34.94" height="54.15" fill="#2f2e41"/><rect x="463.84" y="338.57" width="27.74" height="46.22" opacity="0.5"/><rect x="455.24" y="388.76" width="44.94" height="7.79" fill="#265CB1"/><g opacity="0.1"><polygon points="491.58 338.57 491.58 344.29 463.82 372.03 463.82 361.48 486.74 338.57 491.58 338.57" fill="#fff"/><polygon points="491.58 372.83 491.58 378.12 484.9 384.8 479.63 384.8 491.58 372.83" fill="#fff"/><polygon points="473.17 338.57 463.82 347.91 463.82 342.64 467.88 338.57 473.17 338.57" fill="#fff"/><polygon points="491.58 364.56 491.58 366.26 473.04 384.8 471.34 384.8 491.58 364.56" fill="#fff"/></g><rect x="460.24" y="365.76" width="34.94" height="3.96" fill="#2f2e41"/><polygon points="530.14 409.32 306.04 409.32 306.04 412.06 530.14 410.68 530.14 409.32" fill="#265CB1" opacity="0.5"/><rect x="306.04" y="405.51" width="224.1" height="3.81" fill="#fff"/><polygon points="530.14 325.06 306.04 325.06 306.04 327.81 530.14 326.44 530.14 325.06" fill="#265CB1" opacity="0.5"/><rect x="306.04" y="321.24" width="224.1" height="3.81" fill="#fff"/><polygon points="530.14 240.81 306.04 240.81 306.04 243.57 530.14 242.19 530.14 240.81" fill="#265CB1" opacity="0.5"/><rect x="306.04" y="237" width="224.1" height="3.81" fill="#fff"/><rect x="296.42" y="218.73" width="9.62" height="312.69" fill="#265CB1"/><rect x="296.42" y="218.73" width="9.62" height="312.69" fill="#fff" opacity="0.8" style="isolation:isolate"/><rect x="530.14" y="218.73" width="9.62" height="312.69" fill="#265CB1"/><rect x="530.14" y="218.73" width="9.62" height="312.69" fill="#fff" opacity="0.8" style="isolation:isolate"/><rect x="483.04" y="433.6" width="8.27" height="91.43" fill="#265CB1"/><rect x="483.04" y="433.6" width="8.27" height="91.43" fill="#fff" opacity="0.9" style="isolation:isolate"/><rect x="341.99" y="433.6" width="8.27" height="91.43" fill="#265CB1"/><rect x="341.99" y="433.6" width="8.27" height="91.43" fill="#fff" opacity="0.9" style="isolation:isolate"/><rect x="328.76" y="528.25" width="178.64" height="3.22" fill="#ebebeb"/><rect x="337.48" y="525.03" width="161.22" height="3.22" fill="#ebebeb"/><polygon points="498.7 527.43 337.48 526.63 337.48 528.25 498.7 528.25 498.7 527.43" fill="#dbdbdb"/><rect x="96.98" y="305.36" width="199.46" height="226.08" fill="#265CB1"/><rect x="96.98" y="305.36" width="199.46" height="226.08" fill="#fff" opacity="0.7" style="isolation:isolate"/><rect x="96.98" y="497.25" width="199.46" height="34.18" fill="#265CB1" opacity="0.5"/><rect x="119.61" y="334.22" width="34.94" height="54.15" fill="#2f2e41"/><rect x="123.21" y="338.18" width="27.74" height="46.22" opacity="0.5"/><rect x="114.65" y="388.32" width="44.91" height="7.78" fill="#265CB1"/><g opacity="0.1"><polygon points="150.95 338.2 150.95 343.9 123.21 371.66 123.21 361.1 146.12 338.2 150.95 338.2" fill="#fff"/><polygon points="150.95 372.46 150.95 377.73 144.27 384.42 139 384.42 150.95 372.46" fill="#fff"/><polygon points="132.56 338.2 123.21 347.54 123.21 342.25 127.25 338.2 132.56 338.2" fill="#fff"/><polygon points="150.95 364.19 150.95 365.88 132.43 384.42 130.73 384.42 150.95 364.19" fill="#fff"/></g><rect x="119.61" y="365.38" width="34.94" height="3.96" fill="#2f2e41"/><rect x="179.22" y="334.22" width="34.94" height="54.15" fill="#2f2e41"/><rect x="182.83" y="338.18" width="27.74" height="46.22" opacity="0.5"/><rect x="174.23" y="388.32" width="44.91" height="7.78" fill="#265CB1"/><g opacity="0.1"><polygon points="210.57 338.2 210.57 343.9 182.83 371.66 182.83 361.1 205.73 338.2 210.57 338.2" fill="#fff"/><polygon points="210.57 372.46 210.57 377.73 203.89 384.42 198.62 384.42 210.57 372.46" fill="#fff"/><polygon points="192.17 338.2 182.83 347.54 182.83 342.25 186.87 338.2 192.17 338.2" fill="#fff"/><polygon points="210.57 364.19 210.57 365.88 192.03 384.42 190.35 384.42 210.57 364.19" fill="#fff"/></g><rect x="179.22" y="365.38" width="34.94" height="3.96" fill="#2f2e41"/><rect x="238.84" y="334.22" width="34.94" height="54.15" fill="#2f2e41"/><rect x="242.45" y="338.18" width="27.74" height="46.22" opacity="0.5"/><rect x="233.82" y="388.32" width="44.91" height="7.78" fill="#265CB1"/><g opacity="0.1"><polygon points="270.19 338.2 270.19 343.9 242.44 371.66 242.44 361.1 265.35 338.2 270.19 338.2" fill="#fff"/><polygon points="270.19 372.46 270.19 377.73 263.5 384.42 258.23 384.42 270.19 372.46" fill="#fff"/><polygon points="251.79 338.2 242.44 347.54 242.44 342.25 246.5 338.2 251.79 338.2" fill="#fff"/><polygon points="270.19 364.19 270.19 365.88 251.66 384.42 249.96 384.42 270.19 364.19" fill="#fff"/></g><rect x="238.84" y="365.38" width="34.94" height="3.96" fill="#2f2e41"/><rect x="119.61" y="415.99" width="34.94" height="54.15" fill="#2f2e41"/><rect x="123.21" y="419.96" width="27.74" height="46.22" opacity="0.5"/><rect x="114.65" y="470.06" width="44.91" height="7.78" fill="#265CB1"/><g opacity="0.1"><polygon points="150.95 419.96 150.95 425.68 123.21 453.42 123.21 442.88 146.12 419.96 150.95 419.96" fill="#fff"/><polygon points="150.95 454.23 150.95 459.51 144.27 466.18 139 466.18 150.95 454.23" fill="#fff"/><polygon points="132.56 419.96 123.21 429.31 123.21 424.03 127.25 419.96 132.56 419.96" fill="#fff"/><polygon points="150.95 445.95 150.95 447.65 132.43 466.18 130.73 466.18 150.95 445.95" fill="#fff"/></g><rect x="119.61" y="447.14" width="34.94" height="3.96" fill="#2f2e41"/><rect x="179.22" y="415.99" width="34.94" height="54.15" fill="#2f2e41"/><rect x="182.83" y="419.96" width="27.74" height="46.22" opacity="0.5"/><rect x="174.22" y="470.15" width="44.94" height="7.79" fill="#265CB1"/><g opacity="0.1"><polygon points="210.57 419.96 210.57 425.68 182.83 453.42 182.83 442.88 205.73 419.96 210.57 419.96" fill="#fff"/><polygon points="210.57 454.23 210.57 459.51 203.89 466.18 198.62 466.18 210.57 454.23" fill="#fff"/><polygon points="192.17 419.96 182.83 429.31 182.83 424.03 186.87 419.96 192.17 419.96" fill="#fff"/><polygon points="210.57 445.95 210.57 447.65 192.03 466.18 190.35 466.18 210.57 445.95" fill="#fff"/></g><rect x="179.22" y="447.14" width="34.94" height="3.96" fill="#2f2e41"/><rect x="238.84" y="415.99" width="34.94" height="54.15" fill="#2f2e41"/><rect x="242.45" y="419.96" width="27.74" height="46.22" opacity="0.5"/><rect x="233.84" y="470.15" width="44.94" height="7.79" fill="#265CB1"/><g opacity="0.1"><polygon points="270.19 419.96 270.19 425.68 242.44 453.42 242.44 442.88 265.35 419.96 270.19 419.96" fill="#fff"/><polygon points="270.19 454.23 270.19 459.51 263.5 466.18 258.23 466.18 270.19 454.23" fill="#fff"/><polygon points="251.79 419.96 242.44 429.31 242.44 424.03 246.5 419.96 251.79 419.96" fill="#fff"/><polygon points="270.19 445.95 270.19 447.65 251.66 466.18 249.96 466.18 270.19 445.95" fill="#fff"/></g><rect x="238.84" y="447.14" width="34.94" height="3.96" fill="#2f2e41"/><rect x="90.23" y="294.1" width="206.14" height="11.26" fill="#265CB1"/><polygon points="296.42 406.77 96.98 406.77 96.98 409.51 296.42 408.13 296.42 406.77" fill="#265CB1" opacity="0.5"/><rect x="96.98" y="402.96" width="199.46" height="3.81" fill="#fff"/><polygon points="281.79 305.36 296.42 305.36 296.42 531.44 291.72 531.44 281.79 305.36" fill="#265CB1" opacity="0.5"/><rect x="539.74" y="305.36" width="199.46" height="226.08" fill="#265CB1"/><rect x="539.74" y="305.36" width="199.46" height="226.08" fill="#fff" opacity="0.7" style="isolation:isolate"/><rect x="562.38" y="334.22" width="34.94" height="54.15" fill="#2f2e41"/><rect x="565.99" y="338.18" width="27.74" height="46.22" opacity="0.5"/><rect x="557.38" y="388.37" width="44.94" height="7.79" fill="#265CB1"/><g opacity="0.1"><polygon points="593.73 338.2 593.73 343.9 565.99 371.66 565.99 361.1 588.89 338.2 593.73 338.2" fill="#fff"/><polygon points="593.73 372.46 593.73 377.73 587.05 384.42 581.77 384.42 593.73 372.46" fill="#fff"/><polygon points="575.33 338.2 565.99 347.54 565.99 342.25 570.04 338.2 575.33 338.2" fill="#fff"/><polygon points="593.73 364.19 593.73 365.88 575.2 384.42 573.5 384.42 593.73 364.19" fill="#fff"/></g><rect x="562.38" y="365.38" width="34.94" height="3.96" fill="#2f2e41"/><rect x="622" y="334.22" width="34.94" height="54.15" fill="#2f2e41"/><rect x="625.6" y="338.18" width="27.74" height="46.22" opacity="0.5"/><rect x="617" y="388.37" width="44.94" height="7.79" fill="#265CB1"/><g opacity="0.1"><polygon points="653.35 338.2 653.35 343.9 625.61 371.66 625.61 361.1 648.5 338.2 653.35 338.2" fill="#fff"/><polygon points="653.35 372.46 653.35 377.73 646.66 384.42 641.39 384.42 653.35 372.46" fill="#fff"/><polygon points="634.95 338.2 625.61 347.54 625.61 342.25 629.66 338.2 634.95 338.2" fill="#fff"/><polygon points="653.35 364.19 653.35 365.88 634.82 384.42 633.12 384.42 653.35 364.19" fill="#fff"/></g><rect x="622" y="365.38" width="34.94" height="3.96" fill="#2f2e41"/><rect x="681.61" y="334.22" width="34.94" height="54.15" fill="#2f2e41"/><rect x="685.22" y="338.18" width="27.74" height="46.22" opacity="0.5"/><rect x="676.61" y="388.37" width="44.94" height="7.79" fill="#265CB1"/><g opacity="0.1"><polygon points="712.96 338.2 712.96 343.9 685.22 371.66 685.22 361.1 708.12 338.2 712.96 338.2" fill="#fff"/><polygon points="712.96 372.46 712.96 377.73 706.28 384.42 701.01 384.42 712.96 372.46" fill="#fff"/><polygon points="694.56 338.2 685.22 347.54 685.22 342.25 689.27 338.2 694.56 338.2" fill="#fff"/><polygon points="712.96 364.19 712.96 365.88 694.43 384.42 692.74 384.42 712.96 364.19" fill="#fff"/></g><rect x="681.61" y="365.38" width="34.94" height="3.96" fill="#2f2e41"/><rect x="562.38" y="415.99" width="34.94" height="54.15" fill="#2f2e41"/><rect x="565.99" y="419.96" width="27.74" height="46.22" opacity="0.5"/><rect x="557.38" y="470.15" width="44.94" height="7.79" fill="#265CB1"/><g opacity="0.1"><polygon points="593.73 419.96 593.73 425.68 565.99 453.42 565.99 442.88 588.89 419.96 593.73 419.96" fill="#fff"/><polygon points="593.73 454.23 593.73 459.51 587.05 466.18 581.77 466.18 593.73 454.23" fill="#fff"/><polygon points="575.33 419.96 565.99 429.31 565.99 424.03 570.04 419.96 575.33 419.96" fill="#fff"/><polygon points="593.73 445.95 593.73 447.65 575.2 466.18 573.5 466.18 593.73 445.95" fill="#fff"/></g><rect x="562.38" y="447.14" width="34.94" height="3.96" fill="#2f2e41"/><rect x="622" y="415.99" width="34.94" height="54.15" fill="#2f2e41"/><rect x="625.6" y="419.96" width="27.74" height="46.22" opacity="0.5"/><rect x="617" y="470.15" width="44.94" height="7.79" fill="#265CB1"/><g opacity="0.1"><polygon points="653.35 419.96 653.35 425.68 625.61 453.42 625.61 442.88 648.5 419.96 653.35 419.96" fill="#fff"/><polygon points="653.35 454.23 653.35 459.51 646.66 466.18 641.39 466.18 653.35 454.23" fill="#fff"/><polygon points="634.95 419.96 625.61 429.31 625.61 424.03 629.66 419.96 634.95 419.96" fill="#fff"/><polygon points="653.35 445.95 653.35 447.65 634.82 466.18 633.12 466.18 653.35 445.95" fill="#fff"/></g><rect x="622" y="447.14" width="34.94" height="3.96" fill="#2f2e41"/><rect x="681.61" y="415.99" width="34.94" height="54.15" fill="#2f2e41"/><rect x="685.22" y="419.96" width="27.74" height="46.22" opacity="0.5"/><rect x="676.61" y="470.15" width="44.94" height="7.79" fill="#265CB1"/><g opacity="0.1"><polygon points="712.96 419.96 712.96 425.68 685.22 453.42 685.22 442.88 708.12 419.96 712.96 419.96" fill="#fff"/><polygon points="712.96 454.23 712.96 459.51 706.28 466.18 701.01 466.18 712.96 454.23" fill="#fff"/><polygon points="694.56 419.96 685.22 429.31 685.22 424.03 689.27 419.96 694.56 419.96" fill="#fff"/><polygon points="712.96 445.95 712.96 447.65 694.43 466.18 692.74 466.18 712.96 445.95" fill="#fff"/></g><rect x="681.61" y="447.14" width="34.94" height="3.96" fill="#2f2e41"/><rect x="539.75" y="294.1" width="206.25" height="11.27" fill="#265CB1"/><rect x="539.75" y="497.25" width="199.46" height="34.18" fill="#265CB1" opacity="0.5"/><polygon points="739.2 406.77 539.75 406.77 539.75 409.51 739.2 408.13 739.2 406.77" fill="#265CB1" opacity="0.5"/><rect x="539.75" y="402.96" width="199.46" height="3.81" fill="#fff"/><polygon points="554.39 305.36 539.75 305.36 539.75 531.44 544.45 531.44 554.39 305.36" fill="#265CB1" opacity="0.5"/><rect x="324.59" y="187.4" width="187" height="36.43" fill="#265CB1"/><rect x="324.58" y="219.45" width="187" height="0.8" fill="#fff"/><rect x="324.58" y="190.97" width="187" height="0.8" fill="#fff"/><path d="M343,212.17V199.51a1.2,1.2,0,0,1,2.39,0v5.16h5.57v-5.16a1.17,1.17,0,0,1,1.16-1.18h0a1.19,1.19,0,0,1,1.2,1.18V212.2a1.18,1.18,0,0,1-1.18,1.19h0a1.17,1.17,0,0,1-1.19-1.15V207h-5.57v5.16a1.21,1.21,0,0,1-1.34,1.06A1.19,1.19,0,0,1,343,212.2Z" fill="#fff"/><path d="M357.3,199.51a1.17,1.17,0,0,1,1.16-1.18h0a1.19,1.19,0,0,1,1.2,1.18V212.2a1.2,1.2,0,0,1-1.2,1.19,1.17,1.17,0,0,1-1.19-1.15V199.51Z" fill="#fff"/><path d="M363,205.63a7.83,7.83,0,0,1,7.91-7.75h.1a7.9,7.9,0,0,1,4.91,1.6,1.24,1.24,0,1,1-1.32,2.09.9.9,0,0,1-.19-.15,5.65,5.65,0,0,0-3.4-1.16,5.38,5.38,0,0,0-3.88,1.61,5.08,5.08,0,0,0-.25,7.18l.25.25a5.38,5.38,0,0,0,3.88,1.61,6,6,0,0,0,2.95-.82v-3h-3.08a1.23,1.23,0,0,1-1.23-1.22,1.22,1.22,0,0,1,1.22-1.22h4.29a1.23,1.23,0,0,1,1.25,1.19v4.84a2.29,2.29,0,0,1,0,.37v.11h0a.91.91,0,0,1-.41.51,8,8,0,0,1-12.82-6Z" fill="#fff"/><path d="M380.27,212.17V199.51a1.16,1.16,0,0,1,1.15-1.18h0a1.19,1.19,0,0,1,1.2,1.18v5.16h5.57v-5.16a1.2,1.2,0,0,1,2.38,0V212.2a1.2,1.2,0,0,1-2.38,0V207h-5.57v5.16a1.18,1.18,0,0,1-1.18,1.19h0a1.17,1.17,0,0,1-1.18-1.15Z" fill="#fff"/><path d="M401.5,209.61a1.14,1.14,0,0,1,1.6-.15,7,7,0,0,0,4.12,1.61,4.84,4.84,0,0,0,2.69-.79,2,2,0,0,0,.92-1.6,1.38,1.38,0,0,0-.19-.69,2.09,2.09,0,0,0-.65-.64,8.36,8.36,0,0,0-2.94-1h0a11.32,11.32,0,0,1-2.78-.85,4.68,4.68,0,0,1-2-1.6,3.34,3.34,0,0,1-.5-1.77,4,4,0,0,1,1.73-3.2,6.34,6.34,0,0,1,3.72-1.14,8.54,8.54,0,0,1,4.7,1.72,1.08,1.08,0,0,1,.29,1.51h0a1.08,1.08,0,0,1-1.48.35l-.05,0a6.25,6.25,0,0,0-3.46-1.38,4.1,4.1,0,0,0-2.4.74,1.58,1.58,0,0,0-.82,1.36.88.88,0,0,0,.15.59,2.17,2.17,0,0,0,.57.56,7.4,7.4,0,0,0,2.69.95h0a12.76,12.76,0,0,1,3,.91,4.91,4.91,0,0,1,2.15,1.78,3.57,3.57,0,0,1,.53,1.83A4.18,4.18,0,0,1,411.2,212a6.68,6.68,0,0,1-4,1.24,9.38,9.38,0,0,1-5.51-2.17A1.17,1.17,0,0,1,401.5,209.61Z" fill="#fff"/><path d="M415.67,205.62a7.88,7.88,0,0,1,7.9-7.74,8,8,0,0,1,5,1.6,1.27,1.27,0,0,1,.2,1.73,1.24,1.24,0,0,1-1.71.22,5.42,5.42,0,0,0-3.46-1.17,5.74,5.74,0,0,0-3.88,1.61,5.35,5.35,0,0,0-1.6,3.75,5.25,5.25,0,0,0,1.6,3.73,5.68,5.68,0,0,0,3.88,1.6,5.43,5.43,0,0,0,3.46-1.18,1.28,1.28,0,0,1,1.71.24,1.25,1.25,0,0,1-.2,1.71,8,8,0,0,1-5,1.61A7.87,7.87,0,0,1,415.67,205.62Z" fill="#fff"/><path d="M432.93,212.17V199.51a1.16,1.16,0,0,1,1.15-1.18h0a1.17,1.17,0,0,1,1.2,1.17h0v5.16h5.57v-5.16a1.17,1.17,0,0,1,1.16-1.18h0a1.19,1.19,0,0,1,1.2,1.18V212.2a1.19,1.19,0,0,1-1.19,1.19h0a1.17,1.17,0,0,1-1.19-1.15V207h-5.57v5.16a1.18,1.18,0,0,1-1.16,1.19h-.05a1.17,1.17,0,0,1-1.18-1.15Z" fill="#fff"/><path d="M459.42,200.17a8,8,0,0,1,2.18,5.45,7.85,7.85,0,0,1-2.18,5.43,7,7,0,0,1-5.15,2.31,7.22,7.22,0,0,1-5.27-2.31,7.78,7.78,0,0,1-2.13-5.43,7.93,7.93,0,0,1,2.13-5.45,7.2,7.2,0,0,1,5.27-2.29A7,7,0,0,1,459.42,200.17Zm-.27,5.45a5.65,5.65,0,0,0-1.48-3.77,4.64,4.64,0,0,0-6.56-.31,3,3,0,0,0-.31.31,5.44,5.44,0,0,0-1.48,3.77,5.24,5.24,0,0,0,1.48,3.73,4.59,4.59,0,0,0,6.47.41c.14-.13.27-.27.4-.41A5.46,5.46,0,0,0,459.15,205.62Z" fill="#fff"/><path d="M477.49,200.17a8,8,0,0,1,2.18,5.45,7.81,7.81,0,0,1-2.18,5.43,7,7,0,0,1-5.14,2.31,7.24,7.24,0,0,1-5.26-2.31,7.76,7.76,0,0,1-2.13-5.43,7.85,7.85,0,0,1,2.13-5.45,7.2,7.2,0,0,1,5.26-2.29A7,7,0,0,1,477.49,200.17Zm-.27,5.45a5.58,5.58,0,0,0-1.46-3.77,4.65,4.65,0,0,0-6.58-.3c-.11.09-.21.2-.31.3a5.58,5.58,0,0,0-1.46,3.77,5.39,5.39,0,0,0,1.46,3.73,4.61,4.61,0,0,0,6.5.4,3.68,3.68,0,0,0,.39-.4A5.39,5.39,0,0,0,477.22,205.62Z" fill="#fff"/><path d="M483.79,212.17V199.51a1.2,1.2,0,0,1,2.39,0V211H492a1.21,1.21,0,0,1,1.06,1.33,1.19,1.19,0,0,1-1.06,1.06h-7a1.19,1.19,0,0,1-1.19-1.19Z" fill="#fff"/><rect x="111.37" y="483.87" width="13.01" height="4.49" fill="#265CB1"/><path d="M117.12,494c-3.84,0-9.18.18-13,.18H104V489.4h.21c3.83,0,9.23,0,13,.1h.11v.08l-.11,4.5Zm0,0-.09-4.45.09.11h-13l.19-.21V494l-.18-.19c3.74,0,9.2.11,13,.19Z" fill="#265CB1"/><path d="M337.3,359c-3.86,0-9.2.17-13,.17h-.18v-4.8h.21c3.83,0,9.23,0,13,.09h.1v.1l-.1,4.5Zm0,0-.11-4.51.11.12h-13l.19-.21v4.5l-.18-.19c3.74,0,9.22.13,13,.19Z" fill="#265CB1"/><rect x="317.03" y="360.14" width="13.01" height="4.49" fill="#265CB1"/><path d="M322.81,359c-3.86,0-9.19.17-13,.17h-.17v-4.87h.2c3.83,0,9.23,0,13,.1h.09v.09l-.09,4.51Zm0,0-.11-4.51.11.12h-13l.19-.21v4.5l-.17-.19c3.73,0,9.21.13,13,.19Z" fill="#265CB1"/><path d="M725.59,326.44c-3.86,0-9.2.19-13,.17h-.18V321.8h.21c3.83,0,9.23,0,13,.12h.1V322l-.1,4.49Zm0,0-.11-4.49.11.09h-13l.19-.19v4.49l-.18-.18c3.74,0,9.22.12,13,.18Z" fill="#265CB1"/><path d="M725.59,418.25c-3.86,0-9.2.19-13,.19h-.18v-4.89h.21c3.83,0,9.23,0,13,.11h.1v.1l-.1,4.49Zm0,0-.11-4.49.11.1-6.51.08h-6.5l.19-.2v4.49l-.18-.18c3.74,0,9.22.12,13,.18Z" fill="#265CB1"/><rect x="719.74" y="316.26" width="13.01" height="4.49" fill="#265CB1"/><rect x="555.01" y="325.57" width="13.01" height="4.49" fill="#265CB1"/><path d="M568.07,492.86c-3.86,0-9.2.2-13,.18h-.18v-4.87h.21c3.83,0,9.23,0,13,.09h.1v.12l-.1,4.48Zm0,0-.11-4.48.11.09h-13l.19-.19v4.49l-.17-.2c3.73,0,9.21.13,13,.2Z" fill="#265CB1"/><rect x="562.22" y="482.69" width="13.01" height="4.49" fill="#265CB1"/><path d="M718.3,320.76c-3.85,0-9.19.19-13,.18h-.19v-4.81h.21c3.83,0,9.23,0,13,.1h.12v.09l-.12,4.49Zm0,0-.1-4.48.1.09-6.49.08H705.3l.19-.19v4.49l-.17-.18c3.73,0,9.2.11,13,.18Z" fill="#265CB1"/><path d="M182.25,368c-3.86,0-9.2.19-13,.19h-.18v-4.81h.21c3.83,0,9.23,0,13,.1h.1v.09l-.1,4.49Zm0,0-.09-4.49.09.1-6.5.08h-6.51l.21-.21V368l-.18-.17c3.74,0,9.22.11,13,.17Z" fill="#265CB1"/><path d="M330.09,491.31c-3.86,0-9.2.19-13,.17h-.18v-4.8h.23c3.83,0,9.23,0,13,.09h.09v.12l-.09,4.48Zm0,0-.1-4.49.1.1-6.51.08h-6.45l.2-.2v4.49l-.2-.11c3.73,0,9.21.11,13,.18Z" fill="#265CB1"/><path d="M167.77,368c-3.87,0-9.2.19-13,.19h-.17v-4.81h.19c3.83,0,9.23,0,13,.1h.1v.09l-.1,4.49Zm0,0-.1-4.49.1.1-6.51.08h-6.51l.21-.21V368l-.18-.17c3.74,0,9.22.11,13,.17Z" fill="#265CB1"/><path d="M515.19,445.33c-3.85,0-9.2.18-13,.18H502V440.7h.21c3.83,0,9.21,0,13,.1h.12v.09l-.12,4.5Zm0,0-.1-4.5.1.11H502.27l.19-.21v4.5l-.17-.19c3.73,0,9.2.13,13,.19Z" fill="#265CB1"/><path d="M515.19,261c-3.85,0-9.2.19-13,.17H502v-4.81h.21c3.83,0,9.21,0,13,.1h.12v.1L515.2,261Zm0,0-.1-4.49.1.1H502.27l.19-.2v4.49l-.17-.18c3.73,0,9.2.12,13,.18Z" fill="#265CB1"/><rect x="509.43" y="262.16" width="13.01" height="4.49" fill="#265CB1"/><rect x="219.18" y="312.53" width="13.01" height="4.49" fill="#265CB1"/><g id="e2dc214f-b0d1-4fd9-aca1-b08aad064db1" data-name="freepik--Floor--inject-198"><path d="M72.84,543.47c221.16-1,469.3-1,690.49,0C542.17,544.47,294,544.47,72.84,543.47Z" fill="#2f2e41"/><path d="M72.84,676.17c221.16-1,469.3-1,690.49,0C542.17,677.16,294,677.14,72.84,676.17Z" fill="#2f2e41"/><rect x="83.73" y="531.45" width="668.71" height="11.65" fill="#c7c7c7"/><path d="M130.62,531.45a22.14,22.14,0,0,1,0,11.65,18.75,18.75,0,0,1-.8-5.81A19.56,19.56,0,0,1,130.62,531.45Z" fill="#2f2e41"/><path d="M182.88,531.45a20.23,20.23,0,0,1,.8,5.84,19.37,19.37,0,0,1-.8,5.81,21.94,21.94,0,0,1,0-11.65Z" fill="#2f2e41"/><path d="M235.15,531.45a21.94,21.94,0,0,1,0,11.65,19.37,19.37,0,0,1-.8-5.81A20.23,20.23,0,0,1,235.15,531.45Z" fill="#2f2e41"/><path d="M287.41,531.45a19.56,19.56,0,0,1,.8,5.84,18.75,18.75,0,0,1-.8,5.81,22.14,22.14,0,0,1,0-11.65Z" fill="#2f2e41"/><path d="M339.69,531.45a21.94,21.94,0,0,1,0,11.65,19.37,19.37,0,0,1-.8-5.81A19.56,19.56,0,0,1,339.69,531.45Z" fill="#2f2e41"/><path d="M392,531.45a19.56,19.56,0,0,1,.8,5.84,19.37,19.37,0,0,1-.8,5.81,21.94,21.94,0,0,1,0-11.65Z" fill="#2f2e41"/><path d="M444.23,531.45a22.14,22.14,0,0,1,0,11.65,19.06,19.06,0,0,1-.81-5.81A19.9,19.9,0,0,1,444.23,531.45Z" fill="#2f2e41"/><path d="M496.49,531.45a20.23,20.23,0,0,1,.8,5.84,19.37,19.37,0,0,1-.8,5.81,21.94,21.94,0,0,1,0-11.65Z" fill="#2f2e41"/><path d="M548.76,531.45a21.94,21.94,0,0,1,0,11.65,19.37,19.37,0,0,1-.8-5.81A19.56,19.56,0,0,1,548.76,531.45Z" fill="#2f2e41"/><path d="M601,531.45a19.56,19.56,0,0,1,.8,5.84,19.37,19.37,0,0,1-.8,5.81,21.94,21.94,0,0,1,0-11.65Z" fill="#2f2e41"/><path d="M653.3,531.45a22.14,22.14,0,0,1,0,11.65,18.75,18.75,0,0,1-.8-5.81A19.56,19.56,0,0,1,653.3,531.45Z" fill="#2f2e41"/><path d="M705.56,531.45a20.23,20.23,0,0,1,.8,5.84,19.37,19.37,0,0,1-.8,5.81,21.94,21.94,0,0,1,0-11.65Z" fill="#2f2e41"/><polygon points="370.22 543.47 465.96 543.47 646.84 676.16 189.45 676.16 370.22 543.47" fill="#ebebeb"/></g><path d="M159.14,531.45s-1.34-6.28-4-7.26-4.34,1.86-4.34,1.86-.62-6-4.45-7.82-6.69,1.89-6.69,1.89-2.93-7.63-8.17-7.63-7.87,11.22-7.87,11.22-3.09-3.32-6.26-1.44-3.21,9.25-3.21,9.25Z" fill="#2f2e41"/><path d="M606,531.45s-1.35-6.28-4-7.26-4.33,1.86-4.33,1.86-.64-6-4.46-7.82-6.68,1.89-6.68,1.89-2.93-7.63-8.17-7.63-7.89,11.22-7.89,11.22-3.07-3.32-6.25-1.44-3.2,9.25-3.2,9.25Z" fill="#2f2e41"/><path d="M278.18,531.45H230.83s1.6-6.66,4.69-7.14a4.65,4.65,0,0,1,4.62,2.62s-.15-9.31,5.72-10.89,10.77,6.63,10.77,6.63,3.68-4.68,8.68-4.39,6.3,8,6.3,8S276.16,523.65,278.18,531.45Z" fill="#2f2e41"/><path d="M117.06,531.45H92.14s0-3.7,2.5-4.69a3.35,3.35,0,0,1,3.91.94s1-6.82,5.56-6.82,6.76,5.88,6.76,5.88a3.51,3.51,0,0,1,3.56-1.45C117,525.65,117.06,531.45,117.06,531.45Z" fill="#2f2e41"/><path d="M117.06,531.45H92.14s0-3.7,2.5-4.69a3.35,3.35,0,0,1,3.91.94s1-6.82,5.56-6.82,6.76,5.88,6.76,5.88a3.51,3.51,0,0,1,3.56-1.45C117,525.65,117.06,531.45,117.06,531.45Z" opacity="0.5"/><path d="M297.73,531.45H272.81s0-3.7,2.5-4.69a3.34,3.34,0,0,1,3.91.94s1-6.82,5.58-6.82,6.68,5.88,6.68,5.88a3.51,3.51,0,0,1,3.56-1.45C297.64,525.65,297.73,531.45,297.73,531.45Z" fill="#2f2e41"/><path d="M297.73,531.45H272.81s0-3.7,2.5-4.69a3.34,3.34,0,0,1,3.91.94s1-6.82,5.58-6.82,6.68,5.88,6.68,5.88a3.51,3.51,0,0,1,3.56-1.45C297.64,525.65,297.73,531.45,297.73,531.45Z" opacity="0.5"/><path d="M707.67,531.45H682.75s0-3.7,2.5-4.69a3.35,3.35,0,0,1,3.91.94s1-6.82,5.56-6.82,6.77,5.88,6.77,5.88a3.49,3.49,0,0,1,3.55-1.45C707.58,525.65,707.67,531.45,707.67,531.45Z" fill="#2f2e41"/><path d="M707.67,531.45H682.75s0-3.7,2.5-4.69a3.35,3.35,0,0,1,3.91.94s1-6.82,5.56-6.82,6.77,5.88,6.77,5.88a3.49,3.49,0,0,1,3.55-1.45C707.58,525.65,707.67,531.45,707.67,531.45Z" opacity="0.5"/><path d="M744,531.45H702.94s.1-6.1,4.14-7.74a5.52,5.52,0,0,1,6.41,1.6s1.6-11.21,9.18-11.21,11.12,9.61,11.12,9.61a5.79,5.79,0,0,1,5.87-2.39C743.87,521.87,744,531.45,744,531.45Z" fill="#2f2e41"/><path d="M504.39,655.35l19.14.61c25.28,1,27.94-2,27.94-2,1.13-1.53.41-7.06.41-7.06h0c-.35,1.89-2.34,3-4.26,3.68a16.24,16.24,0,0,1-5.74.82l-26.18-.8c-7.89-.15-11.45-1.71-12.84-2.59a2.1,2.1,0,0,1-.94-1.41C500.79,655.45,504.39,655.35,504.39,655.35Z" fill="#2f2e41"/><path d="M451.22,660.78a52.65,52.65,0,0,1,9.6,2.34c7.91,2.19,17,1.2,20.94.58a4.43,4.43,0,0,0,3.72-3.79,19.58,19.58,0,0,0,.13-3.14,2.35,2.35,0,0,1-1.23,1.27c-2.39,1.06-10.24,3.67-21.67-1.39a139,139,0,0,0-14.06-3.24s-12.42-.33-15.22-5.61C426.1,661.45,451.22,660.78,451.22,660.78Z" fill="#2f2e41"/><path d="M451.05,400.7s-2.34.85-7.25,2.56l-3.38,15.13s4.61,1.91,5.89,2.34L445,425.36s-16.75.09-15.26-9.72l2.35-43.32,14.51-30.52,18.14,11.31Z" fill="#2f2e41"/><path d="M451.05,400.7s-2.34.85-7.25,2.56l-3.38,15.13s4.61,1.91,5.89,2.34L445,425.36s-16.75.09-15.26-9.72l2.35-43.32,14.51-30.52,18.14,11.31Z" opacity="0.2"/><path d="M719.83,662.47c-2.51,3.75-11.12,3.48-11.12,3.48-5,0-11.88,2.61-11.88,2.61-12.47,4.4-21.73.48-21.73.48a2.72,2.72,0,0,1-1.05-1.52c-.57-2.83,5.56-5.73,5.56-5.73,7.29-2.84,14.95-8.09,17.77-10.11a5.76,5.76,0,0,0,1.64-1.9c1.63-2.95,3.72-3.44,3.72-3.44s7.11,0,5,6.73a5.38,5.38,0,0,0,4.32-2.54A10.3,10.3,0,0,1,717,647a50.64,50.64,0,0,0,2.93,10.42C720.84,659.61,720.66,661.25,719.83,662.47Z" fill="#265CB1"/><path d="M709.55,671.18a22.56,22.56,0,0,0-10.1,1.66c-18.77,5.47-24.71.47-24.71.47-1.58-1-1-4.6-.69-5.79A2.72,2.72,0,0,0,675.1,669s9.26,3.92,21.73-.48c0,0,6.9-2.61,11.88-2.61,0,0,8.61.27,11.12-3.48l0,0C723.09,673.43,709.55,671.18,709.55,671.18Z" fill="#2f2e41"/><path d="M771.67,662.06a2.73,2.73,0,0,1-1.71,2.61,11.32,11.32,0,0,1-5,.62,14.75,14.75,0,0,0-2.74,0c-4.5.43-18,1.32-16.53-4.18h0s0-2.32,3.54-6.6a7.4,7.4,0,0,0,1.83-3.17s.25-8.67,8.55-8.06c0,0,4.56-.8,6.19,7.82a3.19,3.19,0,0,0,.87,1.65C768.19,654.26,771.55,658.12,771.67,662.06Z" fill="#265CB1"/><path d="M772.07,665.19a3,3,0,0,1-2.4,2.89c-7.37,1.35-18,.3-22-.18a2.56,2.56,0,0,1-2.22-2,10,10,0,0,1,.26-4.81c-1.5,5.5,12,4.61,16.53,4.18a14.75,14.75,0,0,1,2.74,0,11.32,11.32,0,0,0,5-.62,2.73,2.73,0,0,0,1.71-2.61A10.55,10.55,0,0,1,772.07,665.19Z" fill="#2f2e41"/><path d="M428.24,329c1.92,2.41,12,14.63,23.47,21a1,1,0,0,0,1.15-.15l2.56-2.39-15,71a37.9,37.9,0,0,0,5.9,2.33c7.75,2.49,23.22,5.77,46.89,3.39,1.14-.12,2.29-.24,3.46-.39a203.8,203.8,0,0,0,21.69-3.83l1-.22a2.14,2.14,0,0,0,1.65-2.2c-.43-7.4-1.89-36.16.1-53.9,0,0,10.68-54.23-7.2-74.14l-28.05-5.14a65.63,65.63,0,0,0-13.34.06A26.17,26.17,0,0,0,455,294.22l-26.72,33.94A.69.69,0,0,0,428.24,329Z" fill="#265CB1"/><polygon points="776.47 379.12 785.18 381.07 775.66 375.01 776.47 379.12" fill="#f7a48b"/><path d="M501.92,646.65a2.1,2.1,0,0,0,.94,1.41c1.39.88,4.95,2.44,12.84,2.59l26.18.8a16.24,16.24,0,0,0,5.74-.82c1.92-.66,3.91-1.79,4.26-3.68a3.73,3.73,0,0,0,0-1.41s-1.17-3.83-9-4.14c0,0-10.32-1.91-16.48-5.1,0,0-1.81-3.3-4.79-2,0,0-4,4.46-9.46,3,0,0-5.58-.72-6.7-3.72C505.39,633.53,500.77,639.83,501.92,646.65Z" fill="#265CB1"/><path d="M433.43,647.8c2.8,5.28,15.22,5.61,15.22,5.61a139,139,0,0,1,14.06,3.24c11.43,5.06,19.28,2.45,21.67,1.39a2.35,2.35,0,0,0,1.23-1.27c1.76-4.66-8.05-7-8.05-7-8.82-3.13-18-10.27-18-10.27-2.23-3.24-3.68-2.12-3.68-2.12L438.27,634c-2.12,2-4.46,8.15-4.46,8.15C432.62,644.47,432.65,646.33,433.43,647.8Z" fill="#265CB1"/><path d="M520.59,633l1,1.27a10.06,10.06,0,0,1-9.46,3s-8.08-1.38-6.7-5.31l2.23-3.09,11.17.53Z" fill="#f9b499"/><path d="M455.12,635.44l.79,1.9S445.19,642,438.27,634l-.32-2.33,6.68-3.14Z" fill="#f9b499"/><path d="M534.42,252.5s-.61,1.82-4.48,4.1l-1.27-6.39A4.22,4.22,0,0,1,534.42,252.5Z" fill="#2f2e41"/><path d="M534.42,252.5s-.61,1.82-4.48,4.1l-1.27-6.39A4.22,4.22,0,0,1,534.42,252.5Z" opacity="0.2"/><path d="M562.11,331.36l6.53,5.17a6.64,6.64,0,0,0,6.56,1l43.44-17.21s.88-.22,2.21-4.88a22.26,22.26,0,0,1,6.21-10.86s7.1-8.42,8.87-4.43c0,0,.66,1.77-3.33,4.87,0,0-4,5.55-.88,6.65a17.16,17.16,0,0,0,10.64-1.77s13.3-9.75,14.63-5.76a2,2,0,0,1,2,2.88s2,.22,1.33,2.88c0,0,3.33.44-1.55,5.1,0,0-6.21,9.09-13.52,9.53,0,0-12.41.89-19.29,7.76l-9.75,6.87s-35.69,28.38-49.66,20.62l-17.07-9.53A62.1,62.1,0,0,0,562.11,331.36Z" fill="#f9b499"/><path d="M657,304.1a48.94,48.94,0,0,1-6.14,4.48,37.29,37.29,0,0,1-3.32,1.88c-.57.28-1.15.54-1.75.77-.31.1-.6.21-.92.28a3.94,3.94,0,0,1-.47.1l-.48,0a6.07,6.07,0,0,0,1.73-.71c.56-.29,1.1-.6,1.64-.93,1.08-.64,2.15-1.31,3.21-2C652.64,306.69,654.77,305.33,657,304.1Z" fill="#f7a48b"/><path d="M659,307a41.83,41.83,0,0,1-5.51,4.33c-1,.64-2,1.26-3,1.81a17.14,17.14,0,0,1-3.23,1.4c1-.58,2-1.23,3-1.85l2.9-1.92C655,309.47,657,308.17,659,307Z" fill="#f7a48b"/><path d="M660.31,309.86a39.79,39.79,0,0,1-5.67,5.1,28.44,28.44,0,0,1-3.2,2.1,12.29,12.29,0,0,1-3.54,1.45,22.07,22.07,0,0,0,3.27-1.89c1-.71,2.07-1.44,3.07-2.2C656.27,312.92,658.25,311.36,660.31,309.86Z" fill="#f7a48b"/><path d="M631.72,311.63a17.7,17.7,0,0,1,.3,3.25,17.91,17.91,0,0,1-.29,3.27,9.24,9.24,0,0,1-1.14,3.12,4.64,4.64,0,0,1-1.11,1.27,3.19,3.19,0,0,1-1.53.62,4.11,4.11,0,0,0,2.18-2.14,11.83,11.83,0,0,0,.94-3c.21-1,.32-2.1.43-3.17S631.66,312.72,631.72,311.63Z" fill="#f7a48b"/><path d="M719.62,620.21A103.11,103.11,0,0,0,717,647a10.3,10.3,0,0,0-4.94,3.55,5.38,5.38,0,0,1-4.32,2.54c2.16-6.73-5-6.73-5-6.73,2.29-1.52,2-6.08,2-6.08-1.52-14-7.8-59.69-7.8-59.69l1.46-4,14.84-3L725.46,581C726.09,591.53,719.62,620.21,719.62,620.21Z" fill="#f9b499"/><path d="M745.91,580.15s1.87,28,5.61,47.17c0,0,2.1,12.61.7,20.31l12-.22s.61-.36.62-1.65a56,56,0,0,1,.89-10.82c3.06-15.16,9.36-47.71,9.07-56.47l-23.08-14.24Z" fill="#f9b499"/><path d="M706.46,385.68s-19.18-2.31-23.57,20.1l-12.25,43.91s-6.47,22.88,9.94,24.5l9.48,2.08,18.71-89.2Z" fill="#265CB1"/><path d="M706.46,385.68s-19.18-2.31-23.57,20.1l-12.25,43.91s-6.47,22.88,9.94,24.5l9.48,2.08,18.71-89.2Z" fill="#fff" opacity="0.6"/><path d="M790.79,576.81a4.61,4.61,0,0,1-3.06,4.73,25.45,25.45,0,0,1-18.21-1l-.23-.11c-10.95-5.26-19-2.18-21-1.25-.31.14-.47.23-.47.23-17.85,9.45-32.37,3.9-37.21,1.48a18.25,18.25,0,0,1-1.73-1,7.79,7.79,0,0,0-8.13-.78,20.45,20.45,0,0,1-3.75,1.48l-.46.12c-6.33,1.51-10.5,1-13,.2a4.06,4.06,0,0,1-2.81-4.15l6.89-101.81c3.55-59.69,18.47-82.7,18.47-82.7,21.24,10.62,58.37,2.2,58.37,2.2,19.93,20.92,20.27,101.48,20.27,101.48Z" fill="#2f2e41"/><path d="M679.19,456.86,692.6,435.6s3.6-26.88,13.47-43.37c0,0-9.31-6.55-13.7,8.7Z" fill="#fff" opacity="0.5"/><path d="M678.73,464.71l12.06-21-3,26.8S685.2,471.88,678.73,464.71Z" fill="#fff" opacity="0.5"/><polygon points="720.49 291.83 715.92 295.36 714.47 306.78 729.41 305.53 726.92 291.83 720.49 291.83" fill="none" stroke="#000" stroke-miterlimit="10"/><path d="M686.47,330.66s-11.31,48.91-6.15,59.32l20.51-48.68A61.59,61.59,0,0,1,686.47,330.66Z" fill="#f7a48b"/><path d="M686.3,332.84s-2-.37-.55-5c0,0,3.92-24.8,36.22-24.27,0,0,34.75-3.49,46.51,4.41,0,0,15.08,1.66,18.39,25.56,0,0-7.91,12.68-18.39,16.73l-4,44.12s-35.67,7.54-57.18-1.1c0,0-3.4-1.09-1.65-5a19.48,19.48,0,0,0,1.78-7.3c.12-4-.32-9.47-3.07-12.85l-.73-13.24-2.76-13.6S693.47,340.2,686.3,332.84Z" fill="#265CB1"/><path d="M704.32,368.14l4.94-24.79s-1.06,24.14-2.4,30.48A14.05,14.05,0,0,0,704.32,368.14Z" opacity="0.2"/><path d="M729,347.18l11.9,54.7a.34.34,0,0,0,.41.27l38.15-7.95L768,336.86l-37.8,8.49A1.53,1.53,0,0,0,729,347.18Z" fill="#d1d3d4"/><polyline points="768.01 336.86 761.59 336.19 724.17 344.88 736.24 400.03 737.4 400.21" fill="#d1d3d4"/><path d="M725.77,344.48l11.63,55.73,3.15,0-11.84-54.49L767.57,337a.08.08,0,0,0,0-.15l-6.37-.75Z" fill="#fff"/><path d="M710.58,580.84a18.25,18.25,0,0,1-1.73-1,7.79,7.79,0,0,0-8.13-.78,20.45,20.45,0,0,1-3.75,1.48c.13-18.76,1.54-145,17.44-178.48C714.41,402.09,706.68,527.69,710.58,580.84Z" opacity="0.2"/><path d="M769.52,580.49l-.23-.11c-10.95-5.26-19-2.18-21-1.25-.3-20-2.13-153.53,2.32-175.27C750.58,403.86,769,535.89,769.52,580.49Z" opacity="0.2"/><g opacity="0.2"><path d="M763.49,318.25c.08.75.12,1.49.19,2.24l.13,2.24c.1,1.49.15,3,.22,4.46l.33,8.95a39.35,39.35,0,0,1-.68-4.44c-.17-1.49-.25-3-.32-4.48s-.09-3-.06-4.48S763.36,319.75,763.49,318.25Z"/></g><path d="M713.31,325.07s8.26,68.07-20.77,108.36l-1.75,10.26s19.52-27.78,25-66.07,1.09-54-1-58.16Z" fill="#265CB1"/><path d="M713.31,325.07s8.26,68.07-20.77,108.36l-1.75,10.26s19.52-27.78,25-66.07,1.09-54-1-58.16Z" fill="#fff" opacity="0.5"/><path d="M513.88,289.44s9.23,2.89,21.35,13.85l27.95,22.41a2,2,0,0,1,.55,2.35c-2.23,4.78-10,20.4-17.42,24.55a2.16,2.16,0,0,1-2.27-.07l-20.35-13.47S528,306.17,513.88,289.44Z" fill="#265CB1"/><path d="M484.21,284.85c.31,6.38,1.18,30.17-1.84,46.18l-7.91-4.74s2.22-30.28,1.09-40.85a2.78,2.78,0,0,1,1.33-2.72,6.15,6.15,0,0,1,5.54-.42A2.87,2.87,0,0,1,484.21,284.85Z" fill="#2f2e41"/><path d="M513.88,289.44s6.43-.2,8.92,4.77a24.84,24.84,0,0,0,1.65,2.76c2.95,4.27,10.22,18.61,3.79,49.88L520.1,385.6c0-3.11,0-6.35.11-9.71.17-4.68.51-9.11.95-13.28a204.85,204.85,0,0,0,2.55-29.18C523.93,314.1,518.14,298.8,513.88,289.44Z" fill="#2f2e41"/><polygon points="473.23 327.87 518.93 351.94 482.72 418.03 437.73 393.25 473.23 327.87" fill="#265CB1"/><polygon points="473.23 327.87 518.93 351.94 482.72 418.03 437.73 393.25 473.23 327.87" fill="#fff" opacity="0.6"/><polygon points="514.36 347.2 518.93 351.94 473.23 327.87 438.63 391.6 435.27 388.15 470.25 324 514.36 347.2" fill="#fff"/><path d="M438.11,626.87l-.37,4.34a.5.5,0,0,0,.21.45c5.27,3.82,14.93,3.74,16.78,3.68a.48.48,0,0,0,.43-.29l2.57-5.68a6.34,6.34,0,0,0,0-7.88c2.11-2.31.18-6,.18-6L471.77,564s15.57-67.31,15.19-62.51a8.81,8.81,0,0,0,0,1.36c.23,4.47,3.09,9.23,3.09,9.23a6.92,6.92,0,0,0,3.46,6.73c-4,16.34,6.92,88.47,6.92,88.47-1.92,6,2.31,12.11,2.31,12.11-2.12,4.43,1,5.77,1,5.77a6.14,6.14,0,0,0,.58,5.39c4,5.57,17.11,2.11,17.11,2.11l.2-9.61c3.08-4-.58-8.85-.58-8.85,3.84-2.7.38-7.89.38-7.89,8.47-55,6.16-96.16,6.16-96.16.74-53.57-8.46-87.61-9.19-90.23-38.18,8.78-61.82,4.11-72,.83-10.65,33.91,2,100.75,2,100.75a32.5,32.5,0,0,0-1.92,13.65c-7.7,16.35-9,77.13-9,77.13a6.12,6.12,0,0,0,.77,9.23A4.35,4.35,0,0,0,438.11,626.87Z" fill="#2f2e41"/><path d="M487,501.47c.53,7.31,2.5,8.93,2.5,8.93,7.37-20.48,7.37-71.93,7.2-86.67-1.17.15-2.32.27-3.46.39C494.78,449.32,487,501.47,487,501.47Z" opacity="0.2"/><path d="M723.8,294.84a17.26,17.26,0,0,1-1.27,8.05,5,5,0,0,0-.52,2.4c.1,1.88,1.4,4.6,7.82,5,0,0,12,.68,15.15-5.86l.68-16.18L734,278.49Z" fill="#f9b499"/><path d="M723.8,294s.35,4.82-.86,7.75c0,0,14.12-4.82,15.67-13.43l-10.68,3.79Z" fill="#f7a48b"/><path d="M743.94,268.68c0,15.31-8.4,27.71-18.76,27.71a13.5,13.5,0,0,1-6.89-1.93c-4.1-2.39-7.49-6.84-9.58-12.51a38.31,38.31,0,0,1-2.29-13.27c0-15.31,8.4-27.71,18.76-27.71S743.94,253.37,743.94,268.68Z" fill="#f9b499"/><path d="M708.66,255.43s6.88-11.88,14.28-12.05a13.71,13.71,0,0,0,8.26,11.16,2.21,2.21,0,0,1,1.26,1.56,6.66,6.66,0,0,1-.39,4s-1.73,5.68,2.75,6.72c0,0,2.24.51,2.24,4.47a5.09,5.09,0,0,0,4.47,4.31s2.24,4.13-2.92,12.73a3.47,3.47,0,0,0,1,3.23,3.72,3.72,0,0,1,1.12,3,9.11,9.11,0,0,1-.8,3.09s-4.47,13.42,14.29,6.54c0,0,7.57,4.09,7.8-2.36a6,6,0,0,0-.32-2.06,8.57,8.57,0,0,1,.44-5.22s1.72-4-2.41-13.08a10.83,10.83,0,0,1-.17-8,17,17,0,0,0,.83-3.41c1-8.24,2.56-37.54-28.55-34.72C731.89,235.29,713,230,708.66,255.43Z" fill="#2f2e41"/><ellipse cx="743.88" cy="273.33" rx="6.97" ry="4.96" transform="translate(314.17 939.23) rotate(-77.34)" fill="#f9b499"/><path d="M718.35,294.45h-.06c-4.1-2.39-7.49-6.84-9.58-12.51.25-.35,2-2.63,3.47.27,0,0,2.13-2.12,2.85,1.34,0,0,2.38-.79,1.88,3.68C716.91,287.24,719.43,287.31,718.35,294.45Z" fill="#f7a48b"/><path d="M711.93,282.8s-1.21-3.1-2.76-.35c0,0-7.74,12.05-5,20.66,0,0,.86,10.5-2.07,18.76,0,0-17.46,41.12-21.78,57.58a21.49,21.49,0,0,0-.68,7.27c.34,3.83,1.83,8.65,7.15,9.16,0,0,10.5,3.1,15.14-18.41l12.91-58s4.6-9.2,2.51-16.75a6.35,6.35,0,0,1-.15-2.81c.68-3.64,2.08-12.7-.81-12.28,0,0,.69-4.14-1.72-3.62C714.68,284,714.51,281.07,711.93,282.8Z" fill="#f9b499"/><path d="M707.11,294.33a43.15,43.15,0,0,1,3.78-10.16,38.5,38.5,0,0,1-1.57,5.2A39.88,39.88,0,0,1,707.11,294.33Z" fill="#f7a48b"/><path d="M710,295.53a42,42,0,0,1,4-9.81,34.89,34.89,0,0,1-1.67,5A36.11,36.11,0,0,1,710,295.53Z" fill="#f7a48b"/><path d="M713,297.43a25.37,25.37,0,0,1,1.15-4.25,24.74,24.74,0,0,1,1.78-4,25.37,25.37,0,0,1-1.15,4.25A25.63,25.63,0,0,1,713,297.43Z" fill="#f7a48b"/><path d="M786.87,333.58s9.83,51.27,4.43,60.54c0,0-4.21,7.25-15.68,2.19L745.28,383.5s-7.08-1.35-9.61-1.69c0,0-11-.5-9.28-6.24a3.84,3.84,0,0,1-.5-4.55s-2.19-3,.67-3.71c0,0-1.89-2.22-.43-3.69a2.39,2.39,0,0,1,2.6-.45L739,367a5.46,5.46,0,0,0-3.2-4.32,2.68,2.68,0,0,1-1.31-1.48,2.33,2.33,0,0,1-.1-1.06,1.1,1.1,0,0,1,1.51-.79c2.68,1.07,10.54,4.85,12.57,12.83a1.41,1.41,0,0,0,1.08,1l26.93,5.87-5.92-29.72S779.31,345.16,786.87,333.58Z" fill="#f9b499"/><path d="M726.7,375.57a13.46,13.46,0,0,1,3.82.42,13.09,13.09,0,0,1,3.58,1.39,13.11,13.11,0,0,1-3.82-.42A12.78,12.78,0,0,1,726.7,375.57Z" fill="#f7a48b"/><path d="M726,370.94a13.39,13.39,0,0,1,3.81.42,13.15,13.15,0,0,1,3.59,1.39,14.77,14.77,0,0,1-7.4-1.81Z" fill="#f7a48b"/><path d="M726.56,367a13.46,13.46,0,0,1,3.82.42,13.09,13.09,0,0,1,3.58,1.39,13.11,13.11,0,0,1-3.82-.42A12.78,12.78,0,0,1,726.56,367Z" fill="#f7a48b"/><polygon points="514.36 347.2 511.06 344.1 469.37 321.89 433.13 388.2 435.27 388.15 470.25 324 514.36 347.2" fill="#265CB1"/><polygon points="514.36 347.2 511.06 344.1 469.37 321.89 433.13 388.2 435.27 388.15 470.25 324 514.36 347.2" fill="#fff" opacity="0.6"/><path d="M445.24,353.83l4.44-5.09s-8.59-4.56-20.14-18.16c0,0-20.67,30.12-9.41,38.77,0,0,4.53,5.67,54.62,16.73a11.73,11.73,0,0,1,2.58.88l17.51,8.35-.57,1.16s6.78,1.73,5.91-3.9c0,0,4,0,3.46-4.61,0,0,3.46-.87,1.73-5.63,0,0,4.47-2.88,0-6.2,0,0-4.18-2.74-11.82-3a4.88,4.88,0,0,1,3.11-2.12,6.22,6.22,0,0,1,3.26,0c1.36.35,3.62.47,4-2.56a1,1,0,0,0-.75-1.08c-2.35-.66-9.45-2.33-14.79-.19l-8.08,3.46s-2.3,1.73-6.49-.58l-28-13.6A1.69,1.69,0,0,1,445.24,353.83Z" fill="#f9b499"/><path d="M510.53,285.54S514,296,508.18,299c0,0-12.34,8-22.33-14.69h1.94a1.47,1.47,0,0,0,1.63-.82l3.46-7.46,1.85-5.18Z" fill="#f9b499"/><path d="M510.53,285.54a18.13,18.13,0,0,1,.86,5.92s-13.08.86-16.66-20.61Z" fill="#f7a48b"/><ellipse cx="512.08" cy="260.37" rx="18.23" ry="26.78" fill="#f9b499"/><path d="M542.52,252.07a.61.61,0,0,0-.64-.93c-1.89.42-4.91.36-4.27-4.56,0,0,1.14-8-3-8.43,0,0,.69-5.93-6.15-7.07,0,0-6.84-9.11-13.67-5.7a5.5,5.5,0,0,0-6.61,3.42s-16.64-2.5-21.43,12.08l-1.36,15.5A15.29,15.29,0,0,0,487,266.86s5.24,6.84,2.28,10.26c0,0,6.84,2.28,8.21-11.4l4.1-5.92a15.81,15.81,0,0,1,3.64-6.84,13.59,13.59,0,0,0,2.28-11.39s7.3,1.13,7.3-6.61a2.75,2.75,0,0,1,2,3.64s-.91,12.77,12.53,11.63c0,0,3-1.14,5,2.27C534.42,252.5,539,257.43,542.52,252.07Z" fill="#2f2e41"/><ellipse cx="497.09" cy="259.55" rx="4.34" ry="6.61" transform="translate(-61.37 208.71) rotate(-22.37)" fill="#f9b499"/></svg>