<svg xmlns="http://www.w3.org/2000/svg" data-name="Layer 1" viewBox="0 0 865.76 682.89"><path d="M472.33 234.08c8.47 0 219.56-1.48 279.09-1.48 4.17 0-1.1-7.21-3.39-7.72-7.33-1.6-15-1.68-22.44-2.45a73.35 73.35 0 0 1-21.33-5.29c-5.87-2.47-11.72-5.34-18.08-6.41-12.27-1.92-23 4.81-34.57 7.68a26.08 26.08 0 0 1-20.94-2.87c-5.32-3.21-10.16-7-15.72-9.84a86.26 86.26 0 0 0-68.95-3.21 80.29 80.29 0 0 0-15 7.71c-5.63 3.7-10.48 8.41-16.13 12.07-12.5 8-27.94 5.45-41.58 10.08-.84.32-1.69 1.73-.96 1.73ZM460.2 45c11.22 0 199.33 1.23 211.16.86.85 0 1.3-1.28.46-1.69-7.47-3.69-15.91-3-23.65-5.57-4.57-1.6-7.37-4.51-10.53-8a21.69 21.69 0 0 0-9.79-6.41 20.72 20.72 0 0 0-10.66-.33c-3.81.91-7.13 3.09-10.77 4.47-9 3.41-17.82.17-24.28-6.51-5.32-5.51-10.56-10.72-17.79-13.69a23.56 23.56 0 0 0-18.84-.25C538.6 11 533.87 17.23 527.38 21c-7.67 4.48-16.87 3.43-25.35 4.8s-15 8.51-22.44 12.63a15.86 15.86 0 0 1-8.1 2.52 40.53 40.53 0 0 1-4.94-.71c-2.56-.32-5-.24-6.73 1.89-.43.62-.34 2.87.38 2.87ZM83.68 142.73c8.16 0 145.51.92 154.15.63.61 0 .95-.93.34-1.24-5.45-2.69-11.62-2.14-17.28-4.05-3.33-1.12-5.37-3.3-7.68-5.79a16.1 16.1 0 0 0-7.14-4.68 15.14 15.14 0 0 0-7.79-.24 69 69 0 0 0-7.87 3.21c-6.59 2.48-13 .13-17.71-4.81-3.89-4-7.71-7.82-13-10a17.17 17.17 0 0 0-13.75-.2c-5 2.28-8.51 6.88-13.23 9.62-5.61 3.29-12.33 2.5-18.51 3.49s-11 6.21-16.4 9.22a11.55 11.55 0 0 1-5.93 1.83 31.78 31.78 0 0 1-3.6-.5 4.91 4.91 0 0 0-4.91 1.38c-.22.53-.22 2.13.31 2.13Zm510.45 3.58c8.17 0 145.53.91 154.15.62.63 0 1-.93.34-1.23-5.43-2.7-11.6-2.15-17.26-4.06-3.33-1.12-5.37-3.3-7.68-5.78a15.91 15.91 0 0 0-7.15-4.68 15.1 15.1 0 0 0-7.78-.24 67.19 67.19 0 0 0-7.87 3.2c-6.6 2.49-13 .13-17.73-4.81-3.88-4-7.71-7.82-13-10a17.16 17.16 0 0 0-13.76-.19c-5 2.27-8.5 6.87-13.23 9.61-5.6 3.21-12.32 2.5-18.52 3.5s-10.95 6.2-16.38 9.21a11.51 11.51 0 0 1-5.9 1.94 36.26 36.26 0 0 1-3.6-.51 4.92 4.92 0 0 0-4.91 1.39c-.31.41-.25 2.03.28 2.03ZM218.21 280c8.18 0 145.53.92 154.17.63.61 0 .95-.93.34-1.24-5.45-2.69-11.62-2.14-17.28-4.05-3.33-1.12-5.37-3.3-7.67-5.79a16.19 16.19 0 0 0-7.15-4.68 15.14 15.14 0 0 0-7.79-.24 69 69 0 0 0-7.87 3.21c-6.58 2.48-13 .13-17.63-4.81-3.89-4-7.7-7.82-13-10a17.18 17.18 0 0 0-13.77-.19c-5 2.27-8.49 6.87-13.22 9.61-5.61 3.21-12.32 2.5-18.51 3.49s-11 6.21-16.39 9.22a11.61 11.61 0 0 1-5.93 1.83 33.74 33.74 0 0 1-3.61-.52 4.93 4.93 0 0 0-4.9 1.4c-.38.52-.23 2.13.21 2.13Zm-60.44-77.2c.16.46 216.5 0 213.76 0-1.23 0 1.89-1.86.68-2.47-7-3.49-14.75-3.59-22.44-4.3a34.43 34.43 0 0 1-13.11-3.2c-4.07-2.13-6.62-5.85-9.5-9.26a40.67 40.67 0 0 0-36.94-14c-15.39 2.42-27.52 14.13-42.92 16.28-9.26 1.3-18-2.27-27.07-3.54a33.09 33.09 0 0 0-20.32 3.69c-4.8 2.42-9.39 4.45-14.9 4.81-4.23.28-8.48-.2-12.73-.24a28.45 28.45 0 0 0-18.62 7.56c-.77.61-2.95 4.67 4.11 4.67Z" fill="#ebebeb" data-name="freepik--background-complete--inject-198"/><path d="M306.04 218.73h224.1v312.69h-224.1z" fill="#265CB1"/><path d="M306.04 218.73h224.1v312.69h-224.1z" fill="#fff" opacity=".7" style="isolation:isolate"/><path d="M338.09 425.54h160v8.06h-160z" fill="#265CB1"/><path d="M369.21 433.6h97.85v91.43h-97.85z" fill="#2f2e41"/><path d="M375.8 440.35h84.68v84.68H375.8z" opacity=".5"/><path d="M460.48 475.68v15.72l-33.61 33.63h-15.72l49.33-49.35zm-62.57-35.33-22.1 22.1v-15.72l6.36-6.38h15.74zm47.24 0-69.34 69.36v-7.86l61.49-61.5h7.85zm15.33 59.23v7.87l-17.59 17.58h-7.86l25.45-25.45zm0-51.37v1.43l-75.36 75.39h-1.47l76.83-76.82zm-53.4-7.86-31.27 31.26v-1.46l29.81-29.8h1.46zm26.67 0-57.94 57.93v-1.47l56.46-56.46h1.48z" fill="#fff" opacity=".1"/><path d="M415.43 440.35h5.45v84.68h-5.45zM341 252.83h34.94v54.15H341z" fill="#2f2e41"/><path d="M344.61 256.8h27.74v46.22h-27.74z" opacity=".5"/><path d="M336 306.98h44.94v7.79H336z" fill="#265CB1"/><path d="M372.35 256.8v5.71l-27.76 27.75V279.7l22.92-22.9h4.84zm0 34.27v5.27l-6.68 6.68h-5.28l11.96-11.95zm-18.41-34.27-9.35 9.35v-5.29l4.06-4.06h5.29zm18.41 26v1.7l-18.54 18.52h-1.7l20.24-20.22z" fill="#fff" opacity=".1"/><path d="M341 283.98h34.94v3.96H341zm59.62-31.15h34.94v54.15h-34.94z" fill="#2f2e41"/><path d="M404.23 256.8h27.74v46.22h-27.74z" opacity=".5"/><path d="M395.62 306.98h44.94v7.79h-44.94z" fill="#265CB1"/><path d="M431.97 256.8v5.71l-27.76 27.75V279.7l22.92-22.9h4.84zm0 34.27v5.27l-6.69 6.68h-5.29l11.98-11.95zm-18.42-34.27-9.34 9.35v-5.29l4.05-4.06h5.29zm18.42 26v1.7l-18.55 18.52h-1.69l20.24-20.22z" fill="#fff" opacity=".1"/><path d="M400.62 283.98h34.94v3.96h-34.94zm59.62-31.15h34.94v54.15h-34.94z" fill="#2f2e41"/><path d="M463.84 256.8h27.74v46.22h-27.74z" opacity=".5"/><path d="M455.24 306.98h44.94v7.79h-44.94z" fill="#265CB1"/><path d="M491.58 256.8v5.71l-27.76 27.75V279.7l22.92-22.9h4.84zm0 34.27v5.27l-6.68 6.68h-5.27l11.95-11.95zm-18.41-34.27-9.35 9.35v-5.29l4.06-4.06h5.29zm18.41 26v1.7l-18.54 18.52h-1.7l20.24-20.22z" fill="#fff" opacity=".1"/><path d="M460.24 283.98h34.94v3.96h-34.94zM341 334.61h34.94v54.15H341z" fill="#2f2e41"/><path d="M344.61 338.57h27.74v46.22h-27.74z" opacity=".5"/><path d="M336 388.76h44.94v7.79H336z" fill="#265CB1"/><path d="M372.35 338.57v5.72l-27.76 27.74v-10.55l22.92-22.91h4.84zm0 34.26v5.29l-6.68 6.68h-5.28l11.96-11.97zm-18.41-34.26-9.35 9.34v-5.27l4.06-4.07h5.29zm18.41 25.99v1.7l-18.54 18.54h-1.7l20.24-20.24z" fill="#fff" opacity=".1"/><path d="M341 365.76h34.94v3.96H341zm59.62-31.15h34.94v54.15h-34.94z" fill="#2f2e41"/><path d="M404.23 338.57h27.74v46.22h-27.74z" opacity=".5"/><path d="M395.62 388.76h44.94v7.79h-44.94z" fill="#265CB1"/><path d="M431.97 338.57v5.72l-27.76 27.74v-10.55l22.92-22.91h4.84zm0 34.26v5.29l-6.69 6.68h-5.29l11.98-11.97zm-18.42-34.26-9.34 9.34v-5.27l4.05-4.07h5.29zm18.42 25.99v1.7l-18.55 18.54h-1.69l20.24-20.24z" fill="#fff" opacity=".1"/><path d="M400.62 365.76h34.94v3.96h-34.94zm59.62-31.15h34.94v54.15h-34.94z" fill="#2f2e41"/><path d="M463.84 338.57h27.74v46.22h-27.74z" opacity=".5"/><path d="M455.24 388.76h44.94v7.79h-44.94z" fill="#265CB1"/><path d="M491.58 338.57v5.72l-27.76 27.74v-10.55l22.92-22.91h4.84zm0 34.26v5.29l-6.68 6.68h-5.27l11.95-11.97zm-18.41-34.26-9.35 9.34v-5.27l4.06-4.07h5.29zm18.41 25.99v1.7l-18.54 18.54h-1.7l20.24-20.24z" fill="#fff" opacity=".1"/><path d="M460.24 365.76h34.94v3.96h-34.94z" fill="#2f2e41"/><path d="M530.14 409.32h-224.1v2.74l224.1-1.38v-1.36z" fill="#265CB1" opacity=".5"/><path d="M306.04 405.51h224.1v3.81h-224.1z" fill="#fff"/><path d="M530.14 325.06h-224.1v2.75l224.1-1.37v-1.38z" fill="#265CB1" opacity=".5"/><path d="M306.04 321.24h224.1v3.81h-224.1z" fill="#fff"/><path d="M530.14 240.81h-224.1v2.76l224.1-1.38v-1.38z" fill="#265CB1" opacity=".5"/><path d="M306.04 237h224.1v3.81h-224.1z" fill="#fff"/><path d="M296.42 218.73h9.62v312.69h-9.62z" fill="#265CB1"/><path d="M296.42 218.73h9.62v312.69h-9.62z" fill="#fff" opacity=".8" style="isolation:isolate"/><path d="M530.14 218.73h9.62v312.69h-9.62z" fill="#265CB1"/><path d="M530.14 218.73h9.62v312.69h-9.62z" fill="#fff" opacity=".8" style="isolation:isolate"/><path d="M483.04 433.6h8.27v91.43h-8.27z" fill="#265CB1"/><path d="M483.04 433.6h8.27v91.43h-8.27z" fill="#fff" opacity=".9" style="isolation:isolate"/><path d="M341.99 433.6h8.27v91.43h-8.27z" fill="#265CB1"/><path d="M341.99 433.6h8.27v91.43h-8.27z" fill="#fff" opacity=".9" style="isolation:isolate"/><path d="M328.76 528.25H507.4v3.22H328.76zm8.72-3.22H498.7v3.22H337.48z" fill="#ebebeb"/><path d="m498.7 527.43-161.22-.8v1.62H498.7v-.82z" fill="#dbdbdb"/><path d="M96.98 305.36h199.46v226.08H96.98z" fill="#265CB1"/><path d="M96.98 305.36h199.46v226.08H96.98z" fill="#fff" opacity=".7" style="isolation:isolate"/><path d="M96.98 497.25h199.46v34.18H96.98z" fill="#265CB1" opacity=".5"/><path d="M119.61 334.22h34.94v54.15h-34.94z" fill="#2f2e41"/><path d="M123.21 338.18h27.74v46.22h-27.74z" opacity=".5"/><path d="M114.65 388.32h44.91v7.78h-44.91z" fill="#265CB1"/><path d="M150.95 338.2v5.7l-27.74 27.76V361.1l22.91-22.9h4.83zm0 34.26v5.27l-6.68 6.69H139l11.95-11.96zm-18.39-34.26-9.35 9.34v-5.29l4.04-4.05h5.31zm18.39 25.99v1.69l-18.52 18.54h-1.7l20.22-20.23z" fill="#fff" opacity=".1"/><path d="M119.61 365.38h34.94v3.96h-34.94zm59.61-31.16h34.94v54.15h-34.94z" fill="#2f2e41"/><path d="M182.83 338.18h27.74v46.22h-27.74z" opacity=".5"/><path d="M174.23 388.32h44.91v7.78h-44.91z" fill="#265CB1"/><path d="M210.57 338.2v5.7l-27.74 27.76V361.1l22.9-22.9h4.84zm0 34.26v5.27l-6.68 6.69h-5.27l11.95-11.96zm-18.4-34.26-9.34 9.34v-5.29l4.04-4.05h5.3zm18.4 25.99v1.69l-18.54 18.54h-1.68l20.22-20.23z" fill="#fff" opacity=".1"/><path d="M179.22 365.38h34.94v3.96h-34.94zm59.62-31.16h34.94v54.15h-34.94z" fill="#2f2e41"/><path d="M242.45 338.18h27.74v46.22h-27.74z" opacity=".5"/><path d="M233.82 388.32h44.91v7.78h-44.91z" fill="#265CB1"/><path d="M270.19 338.2v5.7l-27.75 27.76V361.1l22.91-22.9h4.84zm0 34.26v5.27l-6.69 6.69h-5.27l11.96-11.96zm-18.4-34.26-9.35 9.34v-5.29l4.06-4.05h5.29zm18.4 25.99v1.69l-18.53 18.54h-1.7l20.23-20.23z" fill="#fff" opacity=".1"/><path d="M238.84 365.38h34.94v3.96h-34.94zm-119.23 50.61h34.94v54.15h-34.94z" fill="#2f2e41"/><path d="M123.21 419.96h27.74v46.22h-27.74z" opacity=".5"/><path d="M114.65 470.06h44.91v7.78h-44.91z" fill="#265CB1"/><path d="M150.95 419.96v5.72l-27.74 27.74v-10.54l22.91-22.92h4.83zm0 34.27v5.28l-6.68 6.67H139l11.95-11.95zm-18.39-34.27-9.35 9.35v-5.28l4.04-4.07h5.31zm18.39 25.99v1.7l-18.52 18.53h-1.7l20.22-20.23z" fill="#fff" opacity=".1"/><path d="M119.61 447.14h34.94v3.96h-34.94zm59.61-31.15h34.94v54.15h-34.94z" fill="#2f2e41"/><path d="M182.83 419.96h27.74v46.22h-27.74z" opacity=".5"/><path d="M174.22 470.15h44.94v7.79h-44.94z" fill="#265CB1"/><path d="M210.57 419.96v5.72l-27.74 27.74v-10.54l22.9-22.92h4.84zm0 34.27v5.28l-6.68 6.67h-5.27l11.95-11.95zm-18.4-34.27-9.34 9.35v-5.28l4.04-4.07h5.3zm18.4 25.99v1.7l-18.54 18.53h-1.68l20.22-20.23z" fill="#fff" opacity=".1"/><path d="M179.22 447.14h34.94v3.96h-34.94zm59.62-31.15h34.94v54.15h-34.94z" fill="#2f2e41"/><path d="M242.45 419.96h27.74v46.22h-27.74z" opacity=".5"/><path d="M233.84 470.15h44.94v7.79h-44.94z" fill="#265CB1"/><path d="M270.19 419.96v5.72l-27.75 27.74v-10.54l22.91-22.92h4.84zm0 34.27v5.28l-6.69 6.67h-5.27l11.96-11.95zm-18.4-34.27-9.35 9.35v-5.28l4.06-4.07h5.29zm18.4 25.99v1.7l-18.53 18.53h-1.7l20.23-20.23z" fill="#fff" opacity=".1"/><path d="M238.84 447.14h34.94v3.96h-34.94z" fill="#2f2e41"/><path d="M90.23 294.1h206.14v11.26H90.23z" fill="#265CB1"/><path d="M296.42 406.77H96.98v2.74l199.44-1.38v-1.36z" fill="#265CB1" opacity=".5"/><path d="M96.98 402.96h199.46v3.81H96.98z" fill="#fff"/><path d="M281.79 305.36h14.63v226.08h-4.7l-9.93-226.08z" fill="#265CB1" opacity=".5"/><path d="M539.74 305.36H739.2v226.08H539.74z" fill="#265CB1"/><path d="M539.74 305.36H739.2v226.08H539.74z" fill="#fff" opacity=".7" style="isolation:isolate"/><path d="M562.38 334.22h34.94v54.15h-34.94z" fill="#2f2e41"/><path d="M565.99 338.18h27.74v46.22h-27.74z" opacity=".5"/><path d="M557.38 388.37h44.94v7.79h-44.94z" fill="#265CB1"/><path d="M593.73 338.2v5.7l-27.74 27.76V361.1l22.9-22.9h4.84zm0 34.26v5.27l-6.68 6.69h-5.28l11.96-11.96zm-18.4-34.26-9.34 9.34v-5.29l4.05-4.05h5.29zm18.4 25.99v1.69l-18.53 18.54h-1.7l20.23-20.23z" fill="#fff" opacity=".1"/><path d="M562.38 365.38h34.94v3.96h-34.94zM622 334.22h34.94v54.15H622z" fill="#2f2e41"/><path d="M625.6 338.18h27.74v46.22H625.6z" opacity=".5"/><path d="M617 388.37h44.94v7.79H617z" fill="#265CB1"/><path d="M653.35 338.2v5.7l-27.74 27.76V361.1l22.89-22.9h4.85zm0 34.26v5.27l-6.69 6.69h-5.27l11.96-11.96zm-18.4-34.26-9.34 9.34v-5.29l4.05-4.05h5.29zm18.4 25.99v1.69l-18.53 18.54h-1.7l20.23-20.23z" fill="#fff" opacity=".1"/><path d="M622 365.38h34.94v3.96H622zm59.61-31.16h34.94v54.15h-34.94z" fill="#2f2e41"/><path d="M685.22 338.18h27.74v46.22h-27.74z" opacity=".5"/><path d="M676.61 388.37h44.94v7.79h-44.94z" fill="#265CB1"/><path d="M712.96 338.2v5.7l-27.74 27.76V361.1l22.9-22.9h4.84zm0 34.26v5.27l-6.68 6.69h-5.27l11.95-11.96zm-18.4-34.26-9.34 9.34v-5.29l4.05-4.05h5.29zm18.4 25.99v1.69l-18.53 18.54h-1.69l20.22-20.23z" fill="#fff" opacity=".1"/><path d="M681.61 365.38h34.94v3.96h-34.94zm-119.23 50.61h34.94v54.15h-34.94z" fill="#2f2e41"/><path d="M565.99 419.96h27.74v46.22h-27.74z" opacity=".5"/><path d="M557.38 470.15h44.94v7.79h-44.94z" fill="#265CB1"/><path d="M593.73 419.96v5.72l-27.74 27.74v-10.54l22.9-22.92h4.84zm0 34.27v5.28l-6.68 6.67h-5.28l11.96-11.95zm-18.4-34.27-9.34 9.35v-5.28l4.05-4.07h5.29zm18.4 25.99v1.7l-18.53 18.53h-1.7l20.23-20.23z" fill="#fff" opacity=".1"/><path d="M562.38 447.14h34.94v3.96h-34.94zM622 415.99h34.94v54.15H622z" fill="#2f2e41"/><path d="M625.6 419.96h27.74v46.22H625.6z" opacity=".5"/><path d="M617 470.15h44.94v7.79H617z" fill="#265CB1"/><path d="M653.35 419.96v5.72l-27.74 27.74v-10.54l22.89-22.92h4.85zm0 34.27v5.28l-6.69 6.67h-5.27l11.96-11.95zm-18.4-34.27-9.34 9.35v-5.28l4.05-4.07h5.29zm18.4 25.99v1.7l-18.53 18.53h-1.7l20.23-20.23z" fill="#fff" opacity=".1"/><path d="M622 447.14h34.94v3.96H622zm59.61-31.15h34.94v54.15h-34.94z" fill="#2f2e41"/><path d="M685.22 419.96h27.74v46.22h-27.74z" opacity=".5"/><path d="M676.61 470.15h44.94v7.79h-44.94z" fill="#265CB1"/><path d="M712.96 419.96v5.72l-27.74 27.74v-10.54l22.9-22.92h4.84zm0 34.27v5.28l-6.68 6.67h-5.27l11.95-11.95zm-18.4-34.27-9.34 9.35v-5.28l4.05-4.07h5.29zm18.4 25.99v1.7l-18.53 18.53h-1.69l20.22-20.23z" fill="#fff" opacity=".1"/><path d="M681.61 447.14h34.94v3.96h-34.94z" fill="#2f2e41"/><path d="M539.75 294.1H746v11.27H539.75z" fill="#265CB1"/><path d="M539.75 497.25h199.46v34.18H539.75zm199.45-90.48H539.75v2.74l199.45-1.38v-1.36z" fill="#265CB1" opacity=".5"/><path d="M539.75 402.96h199.46v3.81H539.75z" fill="#fff"/><path d="M554.39 305.36h-14.64v226.08h4.7l9.94-226.08z" fill="#265CB1" opacity=".5"/><path d="M324.59 187.4h187v36.43h-187z" fill="#265CB1"/><path d="M324.58 219.45h187v.8h-187zm0-28.48h187v.8h-187zm18.42 21.2v-12.66a1.2 1.2 0 0 1 2.39 0v5.16h5.57v-5.16a1.17 1.17 0 0 1 1.16-1.18 1.19 1.19 0 0 1 1.2 1.18v12.69a1.18 1.18 0 0 1-1.18 1.19 1.17 1.17 0 0 1-1.19-1.15V207h-5.57v5.16a1.21 1.21 0 0 1-1.34 1.06 1.19 1.19 0 0 1-1.04-1.02Zm14.3-12.66a1.17 1.17 0 0 1 1.16-1.18 1.19 1.19 0 0 1 1.2 1.18v12.69a1.2 1.2 0 0 1-1.2 1.19 1.17 1.17 0 0 1-1.19-1.15v-12.73Zm5.7 6.12a7.83 7.83 0 0 1 7.91-7.75h.1a7.9 7.9 0 0 1 4.91 1.6 1.24 1.24 0 1 1-1.32 2.09.9.9 0 0 1-.19-.15 5.65 5.65 0 0 0-3.4-1.16 5.38 5.38 0 0 0-3.88 1.61 5.08 5.08 0 0 0-.25 7.18l.25.25a5.38 5.38 0 0 0 3.88 1.61 6 6 0 0 0 2.95-.82v-3h-3.08a1.23 1.23 0 0 1-1.23-1.22 1.22 1.22 0 0 1 1.22-1.22h4.29a1.23 1.23 0 0 1 1.25 1.19v4.84a2.29 2.29 0 0 1 0 .37v.11a.91.91 0 0 1-.41.51 8 8 0 0 1-12.82-6Zm17.27 6.54v-12.66a1.16 1.16 0 0 1 1.15-1.18 1.19 1.19 0 0 1 1.2 1.18v5.16h5.57v-5.16a1.2 1.2 0 0 1 2.38 0v12.69a1.2 1.2 0 0 1-2.38 0V207h-5.57v5.16a1.18 1.18 0 0 1-1.18 1.19 1.17 1.17 0 0 1-1.18-1.15Zm21.23-2.56a1.14 1.14 0 0 1 1.6-.15 7 7 0 0 0 4.12 1.61 4.84 4.84 0 0 0 2.69-.79 2 2 0 0 0 .92-1.6 1.38 1.38 0 0 0-.19-.69 2.09 2.09 0 0 0-.65-.64 8.36 8.36 0 0 0-2.94-1 11.32 11.32 0 0 1-2.78-.85 4.68 4.68 0 0 1-2-1.6 3.34 3.34 0 0 1-.5-1.77 4 4 0 0 1 1.73-3.2 6.34 6.34 0 0 1 3.72-1.14 8.54 8.54 0 0 1 4.7 1.72 1.08 1.08 0 0 1 .29 1.51 1.08 1.08 0 0 1-1.48.35h-.05a6.25 6.25 0 0 0-3.46-1.38 4.1 4.1 0 0 0-2.4.74 1.58 1.58 0 0 0-.82 1.36.88.88 0 0 0 .15.59 2.17 2.17 0 0 0 .57.56 7.4 7.4 0 0 0 2.69.95 12.76 12.76 0 0 1 3 .91 4.91 4.91 0 0 1 2.15 1.78 3.57 3.57 0 0 1 .53 1.83 4.18 4.18 0 0 1-1.89 3.29 6.68 6.68 0 0 1-4 1.24 9.38 9.38 0 0 1-5.51-2.17 1.17 1.17 0 0 1-.19-1.46Zm14.17-3.99a7.88 7.88 0 0 1 7.9-7.74 8 8 0 0 1 5 1.6 1.27 1.27 0 0 1 .2 1.73 1.24 1.24 0 0 1-1.71.22 5.42 5.42 0 0 0-3.46-1.17 5.74 5.74 0 0 0-3.88 1.61 5.35 5.35 0 0 0-1.6 3.75 5.25 5.25 0 0 0 1.6 3.73 5.68 5.68 0 0 0 3.88 1.6 5.43 5.43 0 0 0 3.46-1.18 1.28 1.28 0 0 1 1.71.24 1.25 1.25 0 0 1-.2 1.71 8 8 0 0 1-5 1.61 7.87 7.87 0 0 1-7.9-7.71Zm17.26 6.55v-12.66a1.16 1.16 0 0 1 1.15-1.18 1.17 1.17 0 0 1 1.2 1.17v5.16h5.57v-5.16a1.17 1.17 0 0 1 1.16-1.18 1.19 1.19 0 0 1 1.2 1.18v12.7a1.19 1.19 0 0 1-1.19 1.19 1.17 1.17 0 0 1-1.19-1.15V207h-5.57v5.16a1.18 1.18 0 0 1-1.16 1.19h-.05a1.17 1.17 0 0 1-1.18-1.15Zm26.49-12a8 8 0 0 1 2.18 5.45 7.85 7.85 0 0 1-2.18 5.43 7 7 0 0 1-5.15 2.31 7.22 7.22 0 0 1-5.27-2.31 7.78 7.78 0 0 1-2.13-5.43 7.93 7.93 0 0 1 2.13-5.45 7.2 7.2 0 0 1 5.27-2.29 7 7 0 0 1 5.15 2.29Zm-.27 5.45a5.65 5.65 0 0 0-1.48-3.77 4.64 4.64 0 0 0-6.56-.31 3 3 0 0 0-.31.31 5.44 5.44 0 0 0-1.48 3.77 5.24 5.24 0 0 0 1.48 3.73 4.59 4.59 0 0 0 6.47.41c.14-.13.27-.27.4-.41a5.46 5.46 0 0 0 1.48-3.73Zm18.34-5.45a8 8 0 0 1 2.18 5.45 7.81 7.81 0 0 1-2.18 5.43 7 7 0 0 1-5.14 2.31 7.24 7.24 0 0 1-5.26-2.31 7.76 7.76 0 0 1-2.13-5.43 7.85 7.85 0 0 1 2.13-5.45 7.2 7.2 0 0 1 5.26-2.29 7 7 0 0 1 5.14 2.29Zm-.27 5.45a5.58 5.58 0 0 0-1.46-3.77 4.65 4.65 0 0 0-6.58-.3c-.11.09-.21.2-.31.3a5.58 5.58 0 0 0-1.46 3.77 5.39 5.39 0 0 0 1.46 3.73 4.61 4.61 0 0 0 6.5.4 3.68 3.68 0 0 0 .39-.4 5.39 5.39 0 0 0 1.46-3.73Zm6.57 6.55v-12.66a1.2 1.2 0 0 1 2.39 0V211H492a1.21 1.21 0 0 1 1.06 1.33 1.19 1.19 0 0 1-1.06 1.06h-7a1.19 1.19 0 0 1-1.19-1.19Z" fill="#fff"/><path d="M111.37 483.87h13.01v4.49h-13.01zm5.75 10.13c-3.84 0-9.18.18-13 .18H104v-4.78h.21c3.83 0 9.23 0 13 .1h.11v.08l-.11 4.5Zm0 0-.09-4.45.09.11h-13l.19-.21V494l-.18-.19c3.74 0 9.2.11 13 .19ZM337.3 359c-3.86 0-9.2.17-13 .17h-.18v-4.8h.21c3.83 0 9.23 0 13 .09h.1v.1l-.1 4.5Zm0 0-.11-4.51.11.12h-13l.19-.21v4.5l-.18-.19c3.74 0 9.22.13 13 .19Zm-20.27 1.14h13.01v4.49h-13.01zm5.78-1.14c-3.86 0-9.19.17-13 .17h-.17v-4.87h.2c3.83 0 9.23 0 13 .1h.09v.09l-.09 4.51Zm0 0-.11-4.51.11.12h-13l.19-.21v4.5l-.17-.19c3.73 0 9.21.13 13 .19Zm402.78-32.56c-3.86 0-9.2.19-13 .17h-.18v-4.81h.21c3.83 0 9.23 0 13 .12h.1v.08l-.1 4.49Zm0 0-.11-4.49.11.09h-13l.19-.19v4.49l-.18-.18c3.74 0 9.22.12 13 .18Zm0 91.81c-3.86 0-9.2.19-13 .19h-.18v-4.89h.21c3.83 0 9.23 0 13 .11h.1v.1l-.1 4.49Zm0 0-.11-4.49.11.1-6.51.08h-6.5l.19-.2v4.49l-.18-.18c3.74 0 9.22.12 13 .18Zm-5.85-101.99h13.01v4.49h-13.01zm-164.73 9.31h13.01v4.49h-13.01zm13.06 167.29c-3.86 0-9.2.2-13 .18h-.18v-4.87h.21c3.83 0 9.23 0 13 .09h.1v.12l-.1 4.48Zm0 0-.11-4.48.11.09h-13l.19-.19v4.49l-.17-.2c3.73 0 9.21.13 13 .2Zm-5.85-10.17h13.01v4.49h-13.01zM718.3 320.76c-3.85 0-9.19.19-13 .18h-.19v-4.81h.21c3.83 0 9.23 0 13 .1h.12v.09l-.12 4.49Zm0 0-.1-4.48.1.09-6.49.08h-6.51l.19-.19v4.49l-.17-.18c3.73 0 9.2.11 13 .18ZM182.25 368c-3.86 0-9.2.19-13 .19h-.18v-4.81h.21c3.83 0 9.23 0 13 .1h.1v.09l-.1 4.49Zm0 0-.09-4.49.09.1-6.5.08h-6.51l.21-.21V368l-.18-.17c3.74 0 9.22.11 13 .17Zm147.84 123.31c-3.86 0-9.2.19-13 .17h-.18v-4.8h.23c3.83 0 9.23 0 13 .09h.09v.12l-.09 4.48Zm0 0-.1-4.49.1.1-6.51.08h-6.45l.2-.2v4.49l-.2-.11c3.73 0 9.21.11 13 .18ZM167.77 368c-3.87 0-9.2.19-13 .19h-.17v-4.81h.19c3.83 0 9.23 0 13 .1h.1v.09l-.1 4.49Zm0 0-.1-4.49.1.1-6.51.08h-6.51l.21-.21V368l-.18-.17c3.74 0 9.22.11 13 .17Zm347.42 77.33c-3.85 0-9.2.18-13 .18H502v-4.81h.21c3.83 0 9.21 0 13 .1h.12v.09l-.12 4.5Zm0 0-.1-4.5.1.11h-12.92l.19-.21v4.5l-.17-.19c3.73 0 9.2.13 13 .19Zm0-184.33c-3.85 0-9.2.19-13 .17H502v-4.81h.21c3.83 0 9.21 0 13 .1h.12v.1l-.13 4.44Zm0 0-.1-4.49.1.1h-12.92l.19-.2v4.49l-.17-.18c3.73 0 9.2.12 13 .18Zm-5.76 1.16h13.01v4.49h-13.01zm-290.25 50.37h13.01v4.49h-13.01z" fill="#265CB1"/><g data-name="freepik--Floor--inject-198"><path d="M72.84 543.47c221.16-1 469.3-1 690.49 0-221.16 1-469.33 1-690.49 0Zm0 132.7c221.16-1 469.3-1 690.49 0-221.16.99-469.33.97-690.49 0Z" fill="#2f2e41"/><path d="M83.73 531.45h668.71v11.65H83.73z" fill="#c7c7c7"/><path d="M130.62 531.45a22.14 22.14 0 0 1 0 11.65 18.75 18.75 0 0 1-.8-5.81 19.56 19.56 0 0 1 .8-5.84Zm52.26 0a20.23 20.23 0 0 1 .8 5.84 19.37 19.37 0 0 1-.8 5.81 21.94 21.94 0 0 1 0-11.65Zm52.27 0a21.94 21.94 0 0 1 0 11.65 19.37 19.37 0 0 1-.8-5.81 20.23 20.23 0 0 1 .8-5.84Zm52.26 0a19.56 19.56 0 0 1 .8 5.84 18.75 18.75 0 0 1-.8 5.81 22.14 22.14 0 0 1 0-11.65Zm52.28 0a21.94 21.94 0 0 1 0 11.65 19.37 19.37 0 0 1-.8-5.81 19.56 19.56 0 0 1 .8-5.84Zm52.31 0a19.56 19.56 0 0 1 .8 5.84 19.37 19.37 0 0 1-.8 5.81 21.94 21.94 0 0 1 0-11.65Zm52.23 0a22.14 22.14 0 0 1 0 11.65 19.06 19.06 0 0 1-.81-5.81 19.9 19.9 0 0 1 .81-5.84Zm52.26 0a20.23 20.23 0 0 1 .8 5.84 19.37 19.37 0 0 1-.8 5.81 21.94 21.94 0 0 1 0-11.65Zm52.27 0a21.94 21.94 0 0 1 0 11.65 19.37 19.37 0 0 1-.8-5.81 19.56 19.56 0 0 1 .8-5.84Zm52.24 0a19.56 19.56 0 0 1 .8 5.84 19.37 19.37 0 0 1-.8 5.81 21.94 21.94 0 0 1 0-11.65Zm52.3 0a22.14 22.14 0 0 1 0 11.65 18.75 18.75 0 0 1-.8-5.81 19.56 19.56 0 0 1 .8-5.84Zm52.26 0a20.23 20.23 0 0 1 .8 5.84 19.37 19.37 0 0 1-.8 5.81 21.94 21.94 0 0 1 0-11.65Z" fill="#2f2e41"/><path d="M370.22 543.47h95.74l180.88 132.69H189.45l180.77-132.69z" fill="#ebebeb"/></g><path d="M159.14 531.45s-1.34-6.28-4-7.26-4.34 1.86-4.34 1.86-.62-6-4.45-7.82-6.69 1.89-6.69 1.89-2.93-7.63-8.17-7.63-7.87 11.22-7.87 11.22-3.09-3.32-6.26-1.44-3.21 9.25-3.21 9.25Zm446.86 0s-1.35-6.28-4-7.26-4.33 1.86-4.33 1.86-.64-6-4.46-7.82-6.68 1.89-6.68 1.89-2.93-7.63-8.17-7.63-7.89 11.22-7.89 11.22-3.07-3.32-6.25-1.44-3.2 9.25-3.2 9.25Zm-327.82 0h-47.35s1.6-6.66 4.69-7.14a4.65 4.65 0 0 1 4.62 2.62s-.15-9.31 5.72-10.89 10.77 6.63 10.77 6.63 3.68-4.68 8.68-4.39 6.3 8 6.3 8 4.55-2.63 6.57 5.17Z" fill="#2f2e41"/><path d="M117.06 531.45H92.14s0-3.7 2.5-4.69a3.35 3.35 0 0 1 3.91.94s1-6.82 5.56-6.82 6.76 5.88 6.76 5.88a3.51 3.51 0 0 1 3.56-1.45c2.57.34 2.63 6.14 2.63 6.14Z" fill="#2f2e41"/><path d="M117.06 531.45H92.14s0-3.7 2.5-4.69a3.35 3.35 0 0 1 3.91.94s1-6.82 5.56-6.82 6.76 5.88 6.76 5.88a3.51 3.51 0 0 1 3.56-1.45c2.57.34 2.63 6.14 2.63 6.14Z" opacity=".5"/><path d="M297.73 531.45h-24.92s0-3.7 2.5-4.69a3.34 3.34 0 0 1 3.91.94s1-6.82 5.58-6.82 6.68 5.88 6.68 5.88a3.51 3.51 0 0 1 3.56-1.45c2.6.34 2.69 6.14 2.69 6.14Z" fill="#2f2e41"/><path d="M297.73 531.45h-24.92s0-3.7 2.5-4.69a3.34 3.34 0 0 1 3.91.94s1-6.82 5.58-6.82 6.68 5.88 6.68 5.88a3.51 3.51 0 0 1 3.56-1.45c2.6.34 2.69 6.14 2.69 6.14Z" opacity=".5"/><path d="M707.67 531.45h-24.92s0-3.7 2.5-4.69a3.35 3.35 0 0 1 3.91.94s1-6.82 5.56-6.82 6.77 5.88 6.77 5.88a3.49 3.49 0 0 1 3.55-1.45c2.54.34 2.63 6.14 2.63 6.14Z" fill="#2f2e41"/><path d="M707.67 531.45h-24.92s0-3.7 2.5-4.69a3.35 3.35 0 0 1 3.91.94s1-6.82 5.56-6.82 6.77 5.88 6.77 5.88a3.49 3.49 0 0 1 3.55-1.45c2.54.34 2.63 6.14 2.63 6.14Z" opacity=".5"/><path d="M744 531.45h-41.06s.1-6.1 4.14-7.74a5.52 5.52 0 0 1 6.41 1.6s1.6-11.21 9.18-11.21 11.12 9.61 11.12 9.61a5.79 5.79 0 0 1 5.87-2.39c4.21.55 4.34 10.13 4.34 10.13Zm-239.61 123.9 19.14.61c25.28 1 27.94-2 27.94-2 1.13-1.53.41-7.06.41-7.06-.35 1.89-2.34 3-4.26 3.68a16.24 16.24 0 0 1-5.74.82l-26.18-.8c-7.89-.15-11.45-1.71-12.84-2.59a2.1 2.1 0 0 1-.94-1.41c-1.13 8.85 2.47 8.75 2.47 8.75Zm-53.17 5.43a52.65 52.65 0 0 1 9.6 2.34c7.91 2.19 17 1.2 20.94.58a4.43 4.43 0 0 0 3.72-3.79 19.58 19.58 0 0 0 .13-3.14 2.35 2.35 0 0 1-1.23 1.27c-2.39 1.06-10.24 3.67-21.67-1.39a139 139 0 0 0-14.06-3.24s-12.42-.33-15.22-5.61c-7.33 13.65 17.79 12.98 17.79 12.98Zm-.17-260.08s-2.34.85-7.25 2.56l-3.38 15.13s4.61 1.91 5.89 2.34l-1.31 4.63s-16.75.09-15.26-9.72l2.35-43.32 14.51-30.52 18.14 11.31Z" fill="#2f2e41"/><path d="M451.05 400.7s-2.34.85-7.25 2.56l-3.38 15.13s4.61 1.91 5.89 2.34l-1.31 4.63s-16.75.09-15.26-9.72l2.35-43.32 14.51-30.52 18.14 11.31Z" opacity=".2"/><path d="M719.83 662.47c-2.51 3.75-11.12 3.48-11.12 3.48-5 0-11.88 2.61-11.88 2.61-12.47 4.4-21.73.48-21.73.48a2.72 2.72 0 0 1-1.05-1.52c-.57-2.83 5.56-5.73 5.56-5.73 7.29-2.84 14.95-8.09 17.77-10.11a5.76 5.76 0 0 0 1.64-1.9c1.63-2.95 3.72-3.44 3.72-3.44s7.11 0 5 6.73a5.38 5.38 0 0 0 4.32-2.54A10.3 10.3 0 0 1 717 647a50.64 50.64 0 0 0 2.93 10.42c.91 2.19.73 3.83-.1 5.05Z" fill="#265CB1"/><path d="M709.55 671.18a22.56 22.56 0 0 0-10.1 1.66c-18.77 5.47-24.71.47-24.71.47-1.58-1-1-4.6-.69-5.79a2.72 2.72 0 0 0 1.05 1.48s9.26 3.92 21.73-.48c0 0 6.9-2.61 11.88-2.61 0 0 8.61.27 11.12-3.48 3.26 11-10.28 8.75-10.28 8.75Z" fill="#2f2e41"/><path d="M771.67 662.06a2.73 2.73 0 0 1-1.71 2.61 11.32 11.32 0 0 1-5 .62 14.75 14.75 0 0 0-2.74 0c-4.5.43-18 1.32-16.53-4.18s0-2.32 3.54-6.6a7.4 7.4 0 0 0 1.83-3.17s.25-8.67 8.55-8.06c0 0 4.56-.8 6.19 7.82a3.19 3.19 0 0 0 .87 1.65c1.52 1.51 4.88 5.37 5 9.31Z" fill="#265CB1"/><path d="M772.07 665.19a3 3 0 0 1-2.4 2.89c-7.37 1.35-18 .3-22-.18a2.56 2.56 0 0 1-2.22-2 10 10 0 0 1 .26-4.81c-1.5 5.5 12 4.61 16.53 4.18a14.75 14.75 0 0 1 2.74 0 11.32 11.32 0 0 0 5-.62 2.73 2.73 0 0 0 1.71-2.61 10.55 10.55 0 0 1 .38 3.15Z" fill="#2f2e41"/><path d="M428.24 329c1.92 2.41 12 14.63 23.47 21a1 1 0 0 0 1.15-.15l2.56-2.39-15 71a37.9 37.9 0 0 0 5.9 2.33c7.75 2.49 23.22 5.77 46.89 3.39 1.14-.12 2.29-.24 3.46-.39a203.8 203.8 0 0 0 21.69-3.83l1-.22a2.14 2.14 0 0 0 1.65-2.2c-.43-7.4-1.89-36.16.1-53.9 0 0 10.68-54.23-7.2-74.14l-28.05-5.14a65.63 65.63 0 0 0-13.34.06 26.17 26.17 0 0 0-17.52 9.8l-26.72 33.94a.69.69 0 0 0-.04.84Z" fill="#265CB1"/><path d="m776.47 379.12 8.71 1.95-9.52-6.06.81 4.11z" fill="#f7a48b"/><path d="M501.92 646.65a2.1 2.1 0 0 0 .94 1.41c1.39.88 4.95 2.44 12.84 2.59l26.18.8a16.24 16.24 0 0 0 5.74-.82c1.92-.66 3.91-1.79 4.26-3.68a3.73 3.73 0 0 0 0-1.41s-1.17-3.83-9-4.14c0 0-10.32-1.91-16.48-5.1 0 0-1.81-3.3-4.79-2 0 0-4 4.46-9.46 3 0 0-5.58-.72-6.7-3.72-.06-.05-4.68 6.25-3.53 13.07Zm-68.49 1.15c2.8 5.28 15.22 5.61 15.22 5.61a139 139 0 0 1 14.06 3.24c11.43 5.06 19.28 2.45 21.67 1.39a2.35 2.35 0 0 0 1.23-1.27c1.76-4.66-8.05-7-8.05-7-8.82-3.13-18-10.27-18-10.27-2.23-3.24-3.68-2.12-3.68-2.12L438.27 634c-2.12 2-4.46 8.15-4.46 8.15-1.19 2.32-1.16 4.18-.38 5.65Z" fill="#265CB1"/><path d="m520.59 633 1 1.27a10.06 10.06 0 0 1-9.46 3s-8.08-1.38-6.7-5.31l2.23-3.09 11.17.53Zm-65.47 2.44.79 1.9S445.19 642 438.27 634l-.32-2.33 6.68-3.14Z" fill="#f9b499"/><path d="M534.42 252.5s-.61 1.82-4.48 4.1l-1.27-6.39a4.22 4.22 0 0 1 5.75 2.29Z" fill="#2f2e41"/><path d="M534.42 252.5s-.61 1.82-4.48 4.1l-1.27-6.39a4.22 4.22 0 0 1 5.75 2.29Z" opacity=".2"/><path d="m562.11 331.36 6.53 5.17a6.64 6.64 0 0 0 6.56 1l43.44-17.21s.88-.22 2.21-4.88a22.26 22.26 0 0 1 6.21-10.86s7.1-8.42 8.87-4.43c0 0 .66 1.77-3.33 4.87 0 0-4 5.55-.88 6.65a17.16 17.16 0 0 0 10.64-1.77s13.3-9.75 14.63-5.76a2 2 0 0 1 2 2.88s2 .22 1.33 2.88c0 0 3.33.44-1.55 5.1 0 0-6.21 9.09-13.52 9.53 0 0-12.41.89-19.29 7.76l-9.75 6.87s-35.69 28.38-49.66 20.62l-17.07-9.53a62.1 62.1 0 0 0 12.63-18.89Z" fill="#f9b499"/><path d="M657 304.1a48.94 48.94 0 0 1-6.14 4.48 37.29 37.29 0 0 1-3.32 1.88c-.57.28-1.15.54-1.75.77-.31.1-.6.21-.92.28a3.94 3.94 0 0 1-.47.1h-.48a6.07 6.07 0 0 0 1.73-.71c.56-.29 1.1-.6 1.64-.93a89.95 89.95 0 0 0 3.21-2c2.14-1.28 4.27-2.64 6.5-3.87Zm2 2.9a41.83 41.83 0 0 1-5.51 4.33c-1 .64-2 1.26-3 1.81a17.14 17.14 0 0 1-3.23 1.4c1-.58 2-1.23 3-1.85l2.9-1.92c1.84-1.3 3.84-2.6 5.84-3.77Zm1.31 2.86a39.79 39.79 0 0 1-5.67 5.1 28.44 28.44 0 0 1-3.2 2.1 12.29 12.29 0 0 1-3.54 1.45 22.07 22.07 0 0 0 3.27-1.89c1-.71 2.07-1.44 3.07-2.2 2.03-1.5 4.01-3.06 6.07-4.56Zm-28.59 1.77a17.7 17.7 0 0 1 .3 3.25 17.91 17.91 0 0 1-.29 3.27 9.24 9.24 0 0 1-1.14 3.12 4.64 4.64 0 0 1-1.11 1.27 3.19 3.19 0 0 1-1.53.62 4.11 4.11 0 0 0 2.18-2.14 11.83 11.83 0 0 0 .94-3c.21-1 .32-2.1.43-3.17s.16-2.13.22-3.22Z" fill="#f7a48b"/><path d="M719.62 620.21A103.11 103.11 0 0 0 717 647a10.3 10.3 0 0 0-4.94 3.55 5.38 5.38 0 0 1-4.32 2.54c2.16-6.73-5-6.73-5-6.73 2.29-1.52 2-6.08 2-6.08-1.52-14-7.8-59.69-7.8-59.69l1.46-4 14.84-3 12.22 7.41c.63 10.53-5.84 39.21-5.84 39.21Zm26.29-40.06s1.87 28 5.61 47.17c0 0 2.1 12.61.7 20.31l12-.22s.61-.36.62-1.65a56 56 0 0 1 .89-10.82c3.06-15.16 9.36-47.71 9.07-56.47l-23.08-14.24Z" fill="#f9b499"/><path d="M706.46 385.68s-19.18-2.31-23.57 20.1l-12.25 43.91s-6.47 22.88 9.94 24.5l9.48 2.08 18.71-89.2Z" fill="#265CB1"/><path d="M706.46 385.68s-19.18-2.31-23.57 20.1l-12.25 43.91s-6.47 22.88 9.94 24.5l9.48 2.08 18.71-89.2Z" fill="#fff" opacity=".6"/><path d="M790.79 576.81a4.61 4.61 0 0 1-3.06 4.73 25.45 25.45 0 0 1-18.21-1l-.23-.11c-10.95-5.26-19-2.18-21-1.25-.31.14-.47.23-.47.23-17.85 9.45-32.37 3.9-37.21 1.48a18.25 18.25 0 0 1-1.73-1 7.79 7.79 0 0 0-8.13-.78 20.45 20.45 0 0 1-3.75 1.48l-.46.12c-6.33 1.51-10.5 1-13 .2a4.06 4.06 0 0 1-2.81-4.15l6.89-101.81c3.55-59.69 18.47-82.7 18.47-82.7 21.24 10.62 58.37 2.2 58.37 2.2 19.93 20.92 20.27 101.48 20.27 101.48Z" fill="#2f2e41"/><path d="m679.19 456.86 13.41-21.26s3.6-26.88 13.47-43.37c0 0-9.31-6.55-13.7 8.7Zm-.46 7.85 12.06-21-3 26.8s-2.59 1.37-9.06-5.8Z" fill="#fff" opacity=".5"/><path d="m720.49 291.83-4.57 3.53-1.45 11.42 14.94-1.25-2.49-13.7h-6.43z" fill="none" stroke="#000" stroke-miterlimit="10"/><path d="M686.47 330.66s-11.31 48.91-6.15 59.32l20.51-48.68a61.59 61.59 0 0 1-14.36-10.64Z" fill="#f7a48b"/><path d="M686.3 332.84s-2-.37-.55-5c0 0 3.92-24.8 36.22-24.27 0 0 34.75-3.49 46.51 4.41 0 0 15.08 1.66 18.39 25.56 0 0-7.91 12.68-18.39 16.73l-4 44.12s-35.67 7.54-57.18-1.1c0 0-3.4-1.09-1.65-5a19.48 19.48 0 0 0 1.78-7.3c.12-4-.32-9.47-3.07-12.85l-.73-13.24-2.76-13.6s-7.4-1.1-14.57-8.46Z" fill="#265CB1"/><path d="m704.32 368.14 4.94-24.79s-1.06 24.14-2.4 30.48a14.05 14.05 0 0 0-2.54-5.69Z" opacity=".2"/><path d="m729 347.18 11.9 54.7a.34.34 0 0 0 .41.27l38.15-7.95L768 336.86l-37.8 8.49a1.53 1.53 0 0 0-1.2 1.83Z" fill="#d1d3d4"/><path d="m768.01 336.86-6.42-.67-37.42 8.69 12.07 55.15 1.16.18" fill="#d1d3d4"/><path d="m725.77 344.48 11.63 55.73h3.15l-11.84-54.49 38.86-8.72a.08.08 0 0 0 0-.15l-6.37-.75Z" fill="#fff"/><path d="M710.58 580.84a18.25 18.25 0 0 1-1.73-1 7.79 7.79 0 0 0-8.13-.78 20.45 20.45 0 0 1-3.75 1.48c.13-18.76 1.54-145 17.44-178.48 0 .03-7.73 125.63-3.83 178.78Zm58.94-.35-.23-.11c-10.95-5.26-19-2.18-21-1.25-.3-20-2.13-153.53 2.32-175.27-.03 0 18.39 132.03 18.91 176.63Zm-6.03-262.24c.08.75.12 1.49.19 2.24l.13 2.24c.1 1.49.15 3 .22 4.46l.33 8.95a39.35 39.35 0 0 1-.68-4.44c-.17-1.49-.25-3-.32-4.48s-.09-3-.06-4.48.06-2.99.19-4.49Z" opacity=".2"/><path d="M713.31 325.07s8.26 68.07-20.77 108.36l-1.75 10.26s19.52-27.78 25-66.07 1.09-54-1-58.16Z" fill="#265CB1"/><path d="M713.31 325.07s8.26 68.07-20.77 108.36l-1.75 10.26s19.52-27.78 25-66.07 1.09-54-1-58.16Z" fill="#fff" opacity=".5"/><path d="M513.88 289.44s9.23 2.89 21.35 13.85l27.95 22.41a2 2 0 0 1 .55 2.35c-2.23 4.78-10 20.4-17.42 24.55a2.16 2.16 0 0 1-2.27-.07l-20.35-13.47s4.31-32.89-9.81-49.62Z" fill="#265CB1"/><path d="M484.21 284.85c.31 6.38 1.18 30.17-1.84 46.18l-7.91-4.74s2.22-30.28 1.09-40.85a2.78 2.78 0 0 1 1.33-2.72 6.15 6.15 0 0 1 5.54-.42 2.87 2.87 0 0 1 1.79 2.55Zm29.67 4.59s6.43-.2 8.92 4.77a24.84 24.84 0 0 0 1.65 2.76c2.95 4.27 10.22 18.61 3.79 49.88l-8.14 38.75c0-3.11 0-6.35.11-9.71.17-4.68.51-9.11.95-13.28a204.85 204.85 0 0 0 2.55-29.18c.22-19.33-5.57-34.63-9.83-43.99Z" fill="#2f2e41"/><path d="m473.23 327.87 45.7 24.07-36.21 66.09-44.99-24.78 35.5-65.38z" fill="#265CB1"/><path d="m473.23 327.87 45.7 24.07-36.21 66.09-44.99-24.78 35.5-65.38z" fill="#fff" opacity=".6"/><path d="m514.36 347.2 4.57 4.74-45.7-24.07-34.6 63.73-3.36-3.45L470.25 324l44.11 23.2z" fill="#fff"/><path d="m438.11 626.87-.37 4.34a.5.5 0 0 0 .21.45c5.27 3.82 14.93 3.74 16.78 3.68a.48.48 0 0 0 .43-.29l2.57-5.68a6.34 6.34 0 0 0 0-7.88c2.11-2.31.18-6 .18-6L471.77 564s15.57-67.31 15.19-62.51a8.81 8.81 0 0 0 0 1.36c.23 4.47 3.09 9.23 3.09 9.23a6.92 6.92 0 0 0 3.46 6.73c-4 16.34 6.92 88.47 6.92 88.47-1.92 6 2.31 12.11 2.31 12.11-2.12 4.43 1 5.77 1 5.77a6.14 6.14 0 0 0 .58 5.39c4 5.57 17.11 2.11 17.11 2.11l.2-9.61c3.08-4-.58-8.85-.58-8.85 3.84-2.7.38-7.89.38-7.89 8.47-55 6.16-96.16 6.16-96.16.74-53.57-8.46-87.61-9.19-90.23-38.18 8.78-61.82 4.11-72 .83-10.65 33.91 2 100.75 2 100.75a32.5 32.5 0 0 0-1.92 13.65c-7.7 16.35-9 77.13-9 77.13a6.12 6.12 0 0 0 .77 9.23 4.35 4.35 0 0 0-.14 5.36Z" fill="#2f2e41"/><path d="M487 501.47c.53 7.31 2.5 8.93 2.5 8.93 7.37-20.48 7.37-71.93 7.2-86.67-1.17.15-2.32.27-3.46.39 1.54 25.2-6.24 77.35-6.24 77.35Z" opacity=".2"/><path d="M723.8 294.84a17.26 17.26 0 0 1-1.27 8.05 5 5 0 0 0-.52 2.4c.1 1.88 1.4 4.6 7.82 5 0 0 12 .68 15.15-5.86l.68-16.18-11.66-9.76Z" fill="#f9b499"/><path d="M723.8 294s.35 4.82-.86 7.75c0 0 14.12-4.82 15.67-13.43l-10.68 3.79Z" fill="#f7a48b"/><path d="M743.94 268.68c0 15.31-8.4 27.71-18.76 27.71a13.5 13.5 0 0 1-6.89-1.93c-4.1-2.39-7.49-6.84-9.58-12.51a38.31 38.31 0 0 1-2.29-13.27c0-15.31 8.4-27.71 18.76-27.71s18.76 12.4 18.76 27.71Z" fill="#f9b499"/><path d="M708.66 255.43s6.88-11.88 14.28-12.05a13.71 13.71 0 0 0 8.26 11.16 2.21 2.21 0 0 1 1.26 1.56 6.66 6.66 0 0 1-.39 4s-1.73 5.68 2.75 6.72c0 0 2.24.51 2.24 4.47a5.09 5.09 0 0 0 4.47 4.31s2.24 4.13-2.92 12.73a3.47 3.47 0 0 0 1 3.23 3.72 3.72 0 0 1 1.12 3 9.11 9.11 0 0 1-.8 3.09s-4.47 13.42 14.29 6.54c0 0 7.57 4.09 7.8-2.36a6 6 0 0 0-.32-2.06 8.57 8.57 0 0 1 .44-5.22s1.72-4-2.41-13.08a10.83 10.83 0 0 1-.17-8 17 17 0 0 0 .83-3.41c1-8.24 2.56-37.54-28.55-34.72.05-.05-18.84-5.34-23.18 20.09Z" fill="#2f2e41"/><ellipse fill="#f9b499" cx="743.88" cy="273.33" rx="6.97" ry="4.96" transform="rotate(-77.34 743.89 273.33)"/><path d="M718.35 294.45h-.06c-4.1-2.39-7.49-6.84-9.58-12.51.25-.35 2-2.63 3.47.27 0 0 2.13-2.12 2.85 1.34 0 0 2.38-.79 1.88 3.68 0 .01 2.52.08 1.44 7.22Z" fill="#f7a48b"/><path d="M711.93 282.8s-1.21-3.1-2.76-.35c0 0-7.74 12.05-5 20.66 0 0 .86 10.5-2.07 18.76 0 0-17.46 41.12-21.78 57.58a21.49 21.49 0 0 0-.68 7.27c.34 3.83 1.83 8.65 7.15 9.16 0 0 10.5 3.1 15.14-18.41l12.91-58s4.6-9.2 2.51-16.75a6.35 6.35 0 0 1-.15-2.81c.68-3.64 2.08-12.7-.81-12.28 0 0 .69-4.14-1.72-3.62.01-.01-.16-2.94-2.74-1.21Z" fill="#f9b499"/><path d="M707.11 294.33a43.15 43.15 0 0 1 3.78-10.16 38.5 38.5 0 0 1-1.57 5.2 39.88 39.88 0 0 1-2.21 4.96Zm2.89 1.2a42 42 0 0 1 4-9.81 34.89 34.89 0 0 1-1.67 5 36.11 36.11 0 0 1-2.33 4.81Zm3 1.9a25.37 25.37 0 0 1 1.15-4.25 24.74 24.74 0 0 1 1.78-4 25.37 25.37 0 0 1-1.15 4.25 25.63 25.63 0 0 1-1.78 4Z" fill="#f7a48b"/><path d="M786.87 333.58s9.83 51.27 4.43 60.54c0 0-4.21 7.25-15.68 2.19l-30.34-12.81s-7.08-1.35-9.61-1.69c0 0-11-.5-9.28-6.24a3.84 3.84 0 0 1-.5-4.55s-2.19-3 .67-3.71c0 0-1.89-2.22-.43-3.69a2.39 2.39 0 0 1 2.6-.45L739 367a5.46 5.46 0 0 0-3.2-4.32 2.68 2.68 0 0 1-1.31-1.48 2.33 2.33 0 0 1-.1-1.06 1.1 1.1 0 0 1 1.51-.79c2.68 1.07 10.54 4.85 12.57 12.83a1.41 1.41 0 0 0 1.08 1l26.93 5.87-5.92-29.72s8.75-4.17 16.31-15.75Z" fill="#f9b499"/><path d="M726.7 375.57a13.46 13.46 0 0 1 3.82.42 13.09 13.09 0 0 1 3.58 1.39 13.11 13.11 0 0 1-3.82-.42 12.78 12.78 0 0 1-3.58-1.39Zm-.7-4.63a13.39 13.39 0 0 1 3.81.42 13.15 13.15 0 0 1 3.59 1.39 14.77 14.77 0 0 1-7.4-1.81Zm.56-3.94a13.46 13.46 0 0 1 3.82.42 13.09 13.09 0 0 1 3.58 1.39 13.11 13.11 0 0 1-3.82-.42 12.78 12.78 0 0 1-3.58-1.39Z" fill="#f7a48b"/><path d="m514.36 347.2-3.3-3.1-41.69-22.21-36.24 66.31 2.14-.05L470.25 324l44.11 23.2z" fill="#265CB1"/><path d="m514.36 347.2-3.3-3.1-41.69-22.21-36.24 66.31 2.14-.05L470.25 324l44.11 23.2z" fill="#fff" opacity=".6"/><path d="m445.24 353.83 4.44-5.09s-8.59-4.56-20.14-18.16c0 0-20.67 30.12-9.41 38.77 0 0 4.53 5.67 54.62 16.73a11.73 11.73 0 0 1 2.58.88l17.51 8.35-.57 1.16s6.78 1.73 5.91-3.9c0 0 4 0 3.46-4.61 0 0 3.46-.87 1.73-5.63 0 0 4.47-2.88 0-6.2 0 0-4.18-2.74-11.82-3a4.88 4.88 0 0 1 3.11-2.12 6.22 6.22 0 0 1 3.26 0c1.36.35 3.62.47 4-2.56a1 1 0 0 0-.75-1.08c-2.35-.66-9.45-2.33-14.79-.19l-8.08 3.46s-2.3 1.73-6.49-.58l-28-13.6a1.69 1.69 0 0 1-.57-2.63Zm65.29-68.29S514 296 508.18 299c0 0-12.34 8-22.33-14.69h1.94a1.47 1.47 0 0 0 1.63-.82l3.46-7.46 1.85-5.18Z" fill="#f9b499"/><path d="M510.53 285.54a18.13 18.13 0 0 1 .86 5.92s-13.08.86-16.66-20.61Z" fill="#f7a48b"/><ellipse fill="#f9b499" cx="512.08" cy="260.37" rx="18.23" ry="26.78"/><path d="M542.52 252.07a.61.61 0 0 0-.64-.93c-1.89.42-4.91.36-4.27-4.56 0 0 1.14-8-3-8.43 0 0 .69-5.93-6.15-7.07 0 0-6.84-9.11-13.67-5.7a5.5 5.5 0 0 0-6.61 3.42s-16.64-2.5-21.43 12.08l-1.36 15.5a15.29 15.29 0 0 0 1.61 10.48s5.24 6.84 2.28 10.26c0 0 6.84 2.28 8.21-11.4l4.1-5.92a15.81 15.81 0 0 1 3.64-6.84 13.59 13.59 0 0 0 2.28-11.39s7.3 1.13 7.3-6.61a2.75 2.75 0 0 1 2 3.64s-.91 12.77 12.53 11.63c0 0 3-1.14 5 2.27.08 0 4.66 4.93 8.18-.43Z" fill="#2f2e41"/><ellipse fill="#f9b499" cx="497.09" cy="259.55" rx="4.34" ry="6.61" transform="rotate(-22.37 497.071 259.539)"/></svg>