<svg id="f7dda0a4-5de0-4c49-9307-ea5a0fe8afd0" data-name="Layer 1" xmlns="http://www.w3.org/2000/svg" width="865.76" height="682.89" viewBox="0 0 865.76 682.89"><g id="f09d723f-badc-4ab4-a2ee-71d91d0aad50" data-name="freepik--background-simple--inject-571"><path d="M728.42,308.86c8.41-73.94-16.59-148.18-69.06-200.93-25.82-25.9-61.1-50.38-108-62.19C419.9,12.63,334.67,43,292.07,123.53S127.23,190.21,107.74,329.14s75.05,291.7,235.27,300S482.6,557.79,570.24,523.55C637.28,497.38,715.91,419.19,728.42,308.86Z" fill="#265CB1"/><path d="M728.42,308.86c8.41-73.94-16.59-148.18-69.06-200.93-25.82-25.9-61.1-50.38-108-62.19C419.9,12.63,334.67,43,292.07,123.53S127.23,190.21,107.74,329.14s75.05,291.7,235.27,300S482.6,557.79,570.24,523.55C637.28,497.38,715.91,419.19,728.42,308.86Z" fill="#fff" opacity="0.83" style="isolation:isolate"/></g><g id="ad88b2ff-0edd-43e9-82cb-34bda6f01c9e" data-name="freepik--background-complete--inject-335"><path d="M630,181.17h-201s19.94-54.41,50.6-54.41,40.23,37.56,40.23,37.56,20.69-20.41,37.69-20.41,31.8,26.94,31.8,26.94S613.39,156.38,630,181.17Z" fill="#ebebeb"/><path d="M712.05,92.42H618.14S639.12,62,655.67,62s21.42,20.27,21.42,20.27,11.66-9.47,22.47-7.74S712.05,92.42,712.05,92.42Z" fill="#ebebeb"/><path d="M181.71,317.76s52.8,117.62-33.6,117.62-30.4-121.6-30.4-121.6-20-8.8,3.19-74.4,33.57-65.59,43.21-65.59c12.18,0,23.51,28.4,15.2,72C179.31,245.77,209.7,300.16,181.71,317.76Z" fill="#ebebeb"/><polygon points="140.45 513.36 148.77 336.21 157.1 513.36 140.45 513.36" fill="#a6a6a6"/><polygon points="145.38 410.48 176.78 373.8 152.16 415.33 145.38 410.48" fill="#a6a6a6"/><path d="M191.1,330.42s-24.64-9.78-44.2,24.23c-20.12,34.9,5.09,57.9,25,44.2,0,0,15.65,32.86,46.92,25S255.25,391,255.25,391,283,393,283.78,372.27s-19.54-39.11-19.54-39.11-1.18-51.63-34.81-51.24S191.1,330.42,191.1,330.42Z" fill="#dbdbdb"/><polygon points="213.97 513.36 221.01 359.75 228.06 513.36 213.97 513.36" fill="#a6a6a6"/><polygon points="218 415.63 197.34 374.39 224.03 412.01 218 415.63" fill="#a6a6a6"/><rect x="426.02" y="341.52" width="10.77" height="95.35" fill="#a6a6a6"/><rect x="621.2" y="341.52" width="10.77" height="95.35" fill="#a6a6a6"/><rect x="397.84" y="350.2" width="262.33" height="14.08" fill="#ebebeb"/><rect x="397.84" y="371.91" width="262.33" height="14.08" fill="#ebebeb"/><rect x="397.84" y="393.62" width="262.33" height="14.08" fill="#ebebeb"/><rect x="397.84" y="415.34" width="262.33" height="14.08" fill="#ebebeb"/><rect x="374.75" y="436.86" width="312.26" height="21" fill="#ebebeb"/><rect x="392.24" y="457.85" width="10.77" height="55.51" fill="#a6a6a6"/><rect x="658.73" y="457.85" width="10.77" height="55.51" fill="#a6a6a6"/></g><g id="e9717806-0556-41e6-9a8c-6bf0c6ce7229" data-name="freepik--Shadow--inject-335"><ellipse cx="440.55" cy="612.16" rx="293.24" ry="38.19" fill="#ebebeb"/></g><g id="bf1a4500-54d8-40f8-827f-b2cb9c2018e1" data-name="freepik--Floor--inject-335"><rect x="115.19" y="513.36" width="650.71" height="16.37" fill="#c7c7c7"/><path d="M160.81,513.36a43.75,43.75,0,0,1,0,16.37A43.75,43.75,0,0,1,160.81,513.36Z" fill="#263238"/><path d="M211.68,513.36a43.75,43.75,0,0,1,0,16.37A43.75,43.75,0,0,1,211.68,513.36Z" fill="#263238"/><path d="M262.58,513.36a43.75,43.75,0,0,1,0,16.37A43.75,43.75,0,0,1,262.58,513.36Z" fill="#263238"/><path d="M313.4,513.36a43.34,43.34,0,0,1,0,16.37A43.75,43.75,0,0,1,313.4,513.36Z" fill="#263238"/><path d="M364.26,513.36a43.75,43.75,0,0,1,0,16.37A43.75,43.75,0,0,1,364.26,513.36Z" fill="#263238"/><path d="M415.13,513.36a43.75,43.75,0,0,1,0,16.37A43.34,43.34,0,0,1,415.13,513.36Z" fill="#263238"/><path d="M466,513.36a43.75,43.75,0,0,1,0,16.37A43.75,43.75,0,0,1,466,513.36Z" fill="#263238"/><path d="M516.85,513.36a43.75,43.75,0,0,1,0,16.37A43.75,43.75,0,0,1,516.85,513.36Z" fill="#263238"/><path d="M567.7,513.36a43.75,43.75,0,0,1,0,16.37A43.75,43.75,0,0,1,567.7,513.36Z" fill="#263238"/><path d="M618.52,513.36a43.34,43.34,0,0,1,0,16.37A43.75,43.75,0,0,1,618.52,513.36Z" fill="#263238"/><path d="M669.42,513.36a43.34,43.34,0,0,1,0,16.37A43.75,43.75,0,0,1,669.42,513.36Z" fill="#263238"/><path d="M720.29,513.36a43.34,43.34,0,0,1,0,16.37A43.75,43.75,0,0,1,720.29,513.36Z" fill="#263238"/></g><g id="ea9ca767-e892-4d75-97c6-d778ca21bfcf" data-name="freepik--Plants--inject-335"><path d="M348.78,513.36H224.34s.28-18.57,12.52-23.43a16.65,16.65,0,0,1,19.5,4.64s5-34.05,27.86-34.05,33.7,29.41,33.7,29.41,5.11-8.88,17.75-7.23S348.78,513.36,348.78,513.36Z" fill="#939598"/><path d="M749.22,513.36s-3.82-17.8-11.44-20.54-12.26,5.25-12.26,5.25-1.79-17-12.59-22.1S694,481.29,694,481.29s-8.28-21.57-23.09-21.57-22.29,31.57-22.29,31.57-8.74-9.38-17.73-4.1-9,26.17-9,26.17Z" fill="#939598"/><path d="M246.64,513.36H131.89s3.77-16.17,11.39-17.32,11.14,6.35,11.14,6.35-.34-22.57,13.93-26.4,26.14,16.09,26.14,16.09,8.91-11.37,21-10.65S230.76,501,230.76,501,241.75,494.43,246.64,513.36Z" fill="#808285"/><path d="M630.21,513.36H559.72s.17-10.49,7.1-13.28a9.44,9.44,0,0,1,11,2.65s2.8-19.27,15.72-19.27,19.1,16.64,19.1,16.64a9.9,9.9,0,0,1,10.06-4.1C629.92,496.92,630.21,513.36,630.21,513.36Z" fill="#808285"/></g><g id="fd86a5b7-e90f-4502-b408-c60d5b69bcf3" data-name="freepik--Sign--inject-335"><rect x="707.56" y="32.54" width="12.04" height="480.82" fill="#dbdbdb"/><rect x="676.47" y="501.3" width="74.24" height="12.04" fill="#dbdbdb"/><polygon points="763.35 91.23 763.35 157.74 663.82 157.74 663.82 91.23 713.59 41.46 763.35 91.23" fill="#265CB1"/><path d="M758.24,152.62H669V93.16l44.64-44.57,44.65,44.65Zm-88-1.33h86.66V93.7L713.59,50.37,670.26,93.7Z" fill="#2f2e41"/><polygon points="722.89 109.38 688.65 109.38 688.65 94.51 691.65 75.12 719.89 75.12 722.89 94.51 722.89 109.38" fill="#2f2e41"/><rect x="690.98" y="109.38" width="3.71" height="6.89" fill="#2f2e41"/><rect x="716.86" y="109.38" width="3.71" height="6.89" fill="#2f2e41"/><path d="M694.62,102a1.8,1.8,0,1,1-1.8-1.8,1.79,1.79,0,0,1,1.8,1.8Z" fill="#265CB1"/><path d="M720.51,102a1.8,1.8,0,1,1-1.79-1.8,1.79,1.79,0,0,1,1.79,1.8Z" fill="#265CB1"/><polygon points="716.92 81.83 694.62 81.83 692.64 94.51 718.9 94.51 716.92 81.83" fill="#265CB1"/><rect x="699.37" y="76.8" width="12.8" height="2.46" fill="#265CB1"/><path d="M734.22,93.83a2.63,2.63,0,1,0-2.63,2.63,2.63,2.63,0,0,0,2.63-2.63Z" fill="#2f2e41"/><path d="M738.49,100.93v.22h0s-.4,2.72-.77,4.17a1,1,0,0,1-1.19.59,1.23,1.23,0,0,1-.78-1.37c.21-1.13.38-2.25.55-3.38a.34.34,0,0,0,0-.28c-.41-.46-.84-.88-1.27-1.33h0v.19c.15,1.08.34,2.16.48,3.25.09.74.12,1.55.18,2.24v.56a22.77,22.77,0,0,0,.22,2.4,7.83,7.83,0,0,0,.29,2c.47,1.31.87,2.63,1.32,4a2.16,2.16,0,0,1,.09.62,1.36,1.36,0,0,1-1.25,1.14A1.18,1.18,0,0,1,735,115c-.51-1.55-1-3.1-1.55-4.65,0-.14,0-.28-.07-.43,0-.59-.11-1.17-.14-1.76,0-.19,0-.28-.27-.27a1.41,1.41,0,0,1-.58-.09c-.17,0-.25,0-.34.16-.38.62-.78,1.23-1.15,1.85a.92.92,0,0,0-.11.48c.16,1.43.3,2.84.53,4.24a1.27,1.27,0,0,1-1.33,1.55,1.18,1.18,0,0,1-1.26-1c-.21-1.75-.41-3.49-.63-5.22a1.16,1.16,0,0,1,.19-.79c.66-1,1.31-2.1,2-3.09a.59.59,0,0,0,.09-.31l-.37-2.37c-.09-.56-.17-1.13-.26-1.75a4.83,4.83,0,0,0-.51.68,1,1,0,0,1-1.24.43l-4.24-1a1,1,0,0,1-.8-1.23l0-.08a1,1,0,0,1,1.23-.83h0l3.22.79a.3.3,0,0,0,.37-.16L729.49,98a.9.9,0,0,1,.27-.28,5.67,5.67,0,0,1,2.9-.71,10.25,10.25,0,0,0,2.07-.14.94.94,0,0,1,.84.28c.85.87,1.72,1.73,2.6,2.58A1.16,1.16,0,0,1,738.49,100.93Z" fill="#2f2e41"/><path d="M678.66,127.76a.58.58,0,0,1,.78,0,3.36,3.36,0,0,0,2,.82,2.35,2.35,0,0,0,1.34-.38,1,1,0,0,0,.44-.78.53.53,0,0,0-.09-.34.84.84,0,0,0-.31-.31,4.64,4.64,0,0,0-1.45-.51h0a5.91,5.91,0,0,1-1.38-.4,2.3,2.3,0,0,1-1-.83,1.5,1.5,0,0,1-.25-.87,2,2,0,0,1,.85-1.55,3.1,3.1,0,0,1,1.84-.56,4.13,4.13,0,0,1,2.31.85.57.57,0,0,1,.15.76.54.54,0,0,1-.75.16h0a3,3,0,0,0-1.7-.68,2.1,2.1,0,0,0-1.19.35.83.83,0,0,0-.4.68.51.51,0,0,0,0,.3,1.28,1.28,0,0,0,.29.28,3.9,3.9,0,0,0,1.33.46h0a6.25,6.25,0,0,1,1.47.45,2.55,2.55,0,0,1,1.07.88,1.77,1.77,0,0,1,.25.9,2.13,2.13,0,0,1-.92,1.66,3.48,3.48,0,0,1-2,.6,4.64,4.64,0,0,1-2.73-1.07.57.57,0,0,1-.11-.78Z" fill="#2f2e41"/><path d="M685.64,125.78a3.93,3.93,0,0,1,4-3.82,3.85,3.85,0,0,1,2.32.84.62.62,0,0,1,.11.85.63.63,0,0,1-.85.11,2.56,2.56,0,0,0-1.72-.59,2.79,2.79,0,0,0-1.9.77,2.6,2.6,0,0,0,0,3.68l0,0a2.82,2.82,0,0,0,1.9.76,2.66,2.66,0,0,0,1.72-.59.61.61,0,0,1,.74,1,4,4,0,0,1-6.36-3Z" fill="#2f2e41"/><path d="M694.17,129.06v-6.19a.56.56,0,0,1,.56-.58h0a.58.58,0,0,1,.59.55v2.57h2.75v-2.54a.56.56,0,0,1,.56-.58h0a.57.57,0,0,1,.59.55v6.22a.58.58,0,0,1-.57.58h0a.57.57,0,0,1-.59-.56v-2.57h-2.75v2.55a.58.58,0,0,1-.58.58h0a.57.57,0,0,1-.59-.56Z" fill="#2f2e41"/><path d="M707.25,123.11a3.92,3.92,0,0,1,0,5.37,3.49,3.49,0,0,1-2.54,1.13,3.61,3.61,0,0,1-2.62-1.13,4,4,0,0,1,0-5.37,3.55,3.55,0,0,1,2.62-1.15A3.44,3.44,0,0,1,707.25,123.11Zm-.14,2.67a2.76,2.76,0,0,0-.73-1.85,2.27,2.27,0,0,0-3.21-.18c-.06.06-.12.11-.18.18a2.72,2.72,0,0,0,0,3.71,2.27,2.27,0,0,0,3.21.18,1.53,1.53,0,0,0,.18-.18A2.74,2.74,0,0,0,707.11,125.78Z" fill="#2f2e41"/><path d="M716.16,123.11a3.86,3.86,0,0,1,0,5.37,3.49,3.49,0,0,1-2.54,1.13,3.58,3.58,0,0,1-2.6-1.13,4,4,0,0,1,0-5.37,3.53,3.53,0,0,1,2.6-1.15A3.38,3.38,0,0,1,716.16,123.11Zm-.14,2.67a2.76,2.76,0,0,0-.71-1.85,2.28,2.28,0,0,0-3.23-.17,1.37,1.37,0,0,0-.17.17,2.7,2.7,0,0,0-.73,1.85,2.63,2.63,0,0,0,.73,1.86,2.28,2.28,0,0,0,3.23.17,1.37,1.37,0,0,0,.17-.17A2.72,2.72,0,0,0,716,125.78Z" fill="#2f2e41"/><path d="M719.27,129.06v-6.19a.59.59,0,0,1,.59-.58h0a.59.59,0,0,1,.6.58v5.67h2.88a.6.6,0,0,1,.58.6h0a.59.59,0,0,1-.58.57h-3.48a.58.58,0,0,1-.59-.58Z" fill="#2f2e41"/><path d="M728.4,129.06v-6.19a.56.56,0,0,1,.56-.58h1.56a2,2,0,0,1,2,2,2,2,0,0,1-.41,1.22,2.26,2.26,0,0,1-1.19,4.19H729a.58.58,0,0,1-.62-.55Zm1.18-4h.91a.87.87,0,0,0,.84-.87.85.85,0,0,0-.84-.84h-.91Zm0,3.37h1.33a1.08,1.08,0,0,0,1.08-1.08v0a1.1,1.1,0,0,0-1.08-1.1h-1.33Z" fill="#2f2e41"/><path d="M737.83,129.61a3.1,3.1,0,0,1-3.1-3.1v-3.78a.57.57,0,0,1,.56-.58h0a.58.58,0,0,1,.59.58h0v3.78a1.9,1.9,0,0,0,3.79,0v-3.78a.57.57,0,0,1,.56-.58h0a.58.58,0,0,1,.59.55v3.81A3.11,3.11,0,0,1,737.83,129.61Z" fill="#2f2e41"/><path d="M743.17,127.76a.57.57,0,0,1,.77,0,3.39,3.39,0,0,0,2,.82,2.24,2.24,0,0,0,1.33-.38,1,1,0,0,0,.46-.78.48.48,0,0,0-.11-.34.89.89,0,0,0-.3-.31,4.79,4.79,0,0,0-1.46-.51h0a5.76,5.76,0,0,1-1.36-.4,2.36,2.36,0,0,1-1-.83,1.72,1.72,0,0,1-.25-.87,2,2,0,0,1,.85-1.55,3.12,3.12,0,0,1,1.84-.56,4.11,4.11,0,0,1,2.32.85.55.55,0,0,1,.14.76.53.53,0,0,1-.74.16h0a3.07,3.07,0,0,0-1.71-.68,2.1,2.1,0,0,0-1.19.35.83.83,0,0,0-.4.68.46.46,0,0,0,.08.3.93.93,0,0,0,.28.28,3.9,3.9,0,0,0,1.33.46h0a6.4,6.4,0,0,1,1.47.45,2.46,2.46,0,0,1,1.06.88,1.67,1.67,0,0,1,.25.9,2,2,0,0,1-.91,1.66,3.37,3.37,0,0,1-2,.6,4.62,4.62,0,0,1-2.72-1.07.55.55,0,0,1-.17-.77Z" fill="#2f2e41"/><path d="M701.35,141.44a.6.6,0,0,1-.37.75h-.23a.88.88,0,0,1-.42-.11,1.33,1.33,0,0,1-.34-.37,3.16,3.16,0,0,1-.22-1.29.92.92,0,0,0-.12-.45.87.87,0,0,0-.33-.3,2.18,2.18,0,0,0-.58-.27h-1.29v2.31a.6.6,0,0,1-.6.59.59.59,0,0,1-.59-.59h0v-6.27a.59.59,0,0,1,.59-.59h1.9a2.27,2.27,0,0,1,1.44,4,1.52,1.52,0,0,1,.37.39,1.93,1.93,0,0,1,.36,1.14,2.29,2.29,0,0,0,0,.64A.53.53,0,0,1,701.35,141.44Zm-1.55-4.27a1.1,1.1,0,0,0-1.1-1.1h-1.25v2.28h1.3a1.08,1.08,0,0,0,1.12-1v-.1Z" fill="#2f2e41"/><path d="M708.75,135.84a3.88,3.88,0,0,1,0,5.39,3.51,3.51,0,0,1-2.54,1.13,3.66,3.66,0,0,1-2.6-1.13,4,4,0,0,1,0-5.39,3.55,3.55,0,0,1,2.6-1.13A3.49,3.49,0,0,1,708.75,135.84Zm-.14,2.7a2.77,2.77,0,0,0-.71-1.86,2.29,2.29,0,0,0-3.24-.17l-.17.17a2.67,2.67,0,0,0-.72,1.86,2.63,2.63,0,0,0,.72,1.84,2.26,2.26,0,0,0,3.19.21,2.18,2.18,0,0,0,.22-.21,2.67,2.67,0,0,0,.71-1.84Z" fill="#2f2e41"/><path d="M714.47,142.36a3.1,3.1,0,0,1-3.09-3.1v-3.79a.59.59,0,0,1,.59-.59h0a.6.6,0,0,1,.6.59v3.79a1.89,1.89,0,0,0,3.78,0v-3.79a.59.59,0,0,1,.59-.59h0a.57.57,0,0,1,.57.58h0v3.79A3.1,3.1,0,0,1,714.47,142.36Z" fill="#2f2e41"/><path d="M724.32,136.11h-1.69v5.66a.59.59,0,0,1-.59.59.6.6,0,0,1-.59-.59v-5.66h-1.67a.6.6,0,0,1-.59-.59v0a.59.59,0,0,1,.56-.59h4.57a.61.61,0,0,1,.59.59A.63.63,0,0,1,724.32,136.11Z" fill="#2f2e41"/><path d="M726.65,141.77V135.5a.59.59,0,0,1,.56-.59h3.5a.61.61,0,0,1,0,1.2h-2.88V138h2.48a.6.6,0,0,1,.5.69.62.62,0,0,1-.5.5h-2.48v2h2.88a.59.59,0,0,1,0,1.18h-3.48a.58.58,0,0,1-.58-.57Z" fill="#2f2e41"/><path d="M716,60.74a2.37,2.37,0,1,1-2.38-2.35h0A2.35,2.35,0,0,1,716,60.72Z" fill="#dbdbdb"/><path d="M716,147.14a2.37,2.37,0,1,1-2.37-2.37h0a2.36,2.36,0,0,1,2.37,2.34Z" fill="#dbdbdb"/></g><path d="M429.51,399.31s-3.58,6.24-8.7,7.06l5.6-10.42Z" fill="#f9b499"/><path d="M469.35,398.46c2.61,6.27,8.18,9.5,11.69,8s4.24-7.73,1.62-14-8.53-10.44-12-9S466.73,392.19,469.35,398.46Z" fill="#265CB1"/><path d="M469.35,398.46c2.61,6.27,8.18,9.5,11.69,8s4.24-7.73,1.62-14-8.53-10.44-12-9S466.73,392.19,469.35,398.46Z" opacity="0.2"/><path d="M217.08,527.78l-4.9-.34a4.61,4.61,0,0,0-4.73,3.25l-3.36,10.95a4.62,4.62,0,0,0,2.46,5.53l.79.37s-8,36-.88,42.2C206.46,589.74,201.74,559.94,217.08,527.78Z" fill="#2f2e41"/><path d="M362.54,511.3l-38.81,35.17a17.42,17.42,0,0,1-7.31,4,7.5,7.5,0,0,1-3.69.21l-8-22.31,20.59-33.17,8.29-8.58Z" fill="#f9b499"/><path d="M312.73,550.7s-12.87,4-38.61.29c0,0-40.61-8.3-48.91,8l-4.57-2a53.81,53.81,0,0,1,11.15-24.59s4.29,4.29,26.88-1.72c0,0,24.6-8,46.05-2.29Z" fill="#d1d3d4"/><path d="M225.21,559s-11.38,23.08-12,30.45c0,0-.85-18.12,7.4-32.45Z" fill="#265CB1"/><path d="M225.21,559s-11.38,23.08-12,30.45c0,0-.85-18.12,7.4-32.45Z" opacity="0.2"/><path d="M231.79,532.4s.63-2.26-2.32-3.44c0,0-11.5-6.2-13.87.59,0,0-13.57,32.16-9.14,60.19,0,0,2.95,3.83,6.78-.3,0,0-.26-14.15,7.4-32.45C220.64,557,222,546.46,231.79,532.4Z" fill="#265CB1"/><path d="M550.76,598.94s3.14-.33,2.87,2.09a3.38,3.38,0,0,1-1.38,2.27c-4.41,3.29-25.64,18.74-40.61,22.72l.86,1.86a1.37,1.37,0,0,1-.95,1.91l-17.73,3.81a1.36,1.36,0,0,1-1.61-1l-1-4.7S526.89,623.33,550.76,598.94Z" fill="#2f2e41"/><path d="M396.85,608.36l-7.77-15a1.33,1.33,0,0,1,.41-1.69L394.8,588s20.67,39.37,43.5,58.07c0,0-7.46,4.4-37-39.64l-2.37,2.29A1.32,1.32,0,0,1,396.85,608.36Z" fill="#2f2e41"/><path d="M430.38,613.51l-4.5,2.81s-15.88-18.66-17-34.27l10.76-5.29,10.19,19.36S427,607.65,430.38,613.51Z" fill="#f9b499"/><path d="M430.38,613.51l13.85,22.58s-13-11.23-18.35-19.77Z" fill="#265CB1"/><path d="M430.38,613.51l13.85,22.58s-13-11.23-18.35-19.77Z" opacity="0.2"/><path d="M408.76,582.09s-8.91-3.43-14,6c0,0,22.23,42.61,43.57,58,0,0,6.18-3,6.31-8.45a3.38,3.38,0,0,0-1.14-2.55C438,630.16,411.9,605.65,408.76,582.09Z" fill="#265CB1"/><path d="M430.55,599.29s11-8.06,13.47-13.42a11.74,11.74,0,0,1,4.85-5.32c13.91-7.81,55.63-32.72,66.47-56.17l29-50.17-44.7-18s-6.89,65.37-45.05,82l-49.11,29.68Z" fill="#2f2e41"/><path d="M484,523.68s-14.26,9.51-22.58,11.09L461,532s-28.52-17.83-36.44-24.17l23.77-21,25.35,19.81S480.81,510.21,484,523.68Z" fill="#f9b499"/><path d="M484,523.68s15,72.09,23,74.87c0,0,7.93,4,13.47,4.35v3.57s-17.69,5.07-30.9,2.77c0,0,0-18.22-15.45-36,0,0-12.28-10.29-12.67-38.42C461.4,534.77,468.5,533.49,484,523.68Z" fill="#d1d3d4"/><path d="M520.42,606.47s16.7-5,25.75-13.47c0,0-23.37,10.3-25.75,9.9Z" fill="#265CB1"/><path d="M520.42,606.47s16.7-5,25.75-13.47c0,0-23.37,10.3-25.75,9.9Z" opacity="0.2"/><path d="M546.17,593s5-.38,5.27,3.74a5.31,5.31,0,0,1-1.83,4.32c-5.41,4.8-26.53,21.86-58.43,26.8,0,0-10.66-7.33-1.66-18.62C489.52,609.24,522.21,613,546.17,593Z" fill="#265CB1"/><path d="M408.16,431.48s24.76,27.93,41.18,30.81c0,0,22.17,0,4.6,15l.86.86a2.87,2.87,0,0,1,.53,3.35c-1.7,3.34-5.51,9.9-9.16,9.9l.46.46a1.94,1.94,0,0,1,.08,2.65c-2.28,2.57-7.35,7.83-10.62,7.83h0a1.67,1.67,0,0,1-.66,2.34c-3,1.58-10.26,4.57-21.23,3.71h0a3.17,3.17,0,0,1-2.41,3.72,39.44,39.44,0,0,1-24.37-2.28l-.27,2.06a2.83,2.83,0,0,1-2.71,2.45c-4,.1-12.24-.59-18.33-7.1l-.8,2.73a2.09,2.09,0,0,1-2.77,1.35c-4-1.6-12.83-5.44-18.89-10.42l-.35.52a1.92,1.92,0,0,1-2.31.74,20,20,0,0,1-8.57-7.3h0a4.57,4.57,0,0,1-6,1.07c-2.6-1.66-6.27-5.11-10.38-12.31,0,0-6.33,2-10.37-8.35L303.19,467a1.73,1.73,0,0,1,1.8-2.22l.93.08,3.79-9.29a6.3,6.3,0,0,1,7.08-3.8l7.85,1.57,22.46-17,45.4-14.49Z" fill="#2f2e41"/><path d="M406.43,441.56s26.49,26.78,47.51,35.71" fill="none" stroke="#000" stroke-miterlimit="10" opacity="0.2"/><path d="M446.17,491.38s-19-14.4-29.66-30.24" fill="none" stroke="#000" stroke-miterlimit="10" opacity="0.2"/><path d="M436.09,502.32s-6-10.08-13.25-15.84c0,0-12.15-11.13-15.33-22.49-.82-2.95-1.84-5.84-2.92-8.7l-3.63-9.7" fill="none" stroke="#000" stroke-miterlimit="10" opacity="0.2"/><path d="M414.2,508.37s-12.67-24.19-16.12-51.55" fill="none" stroke="#000" stroke-miterlimit="10" opacity="0.2"/><path d="M387.42,509.81s-3.17-34.27,4.9-64.8" fill="none" stroke="#000" stroke-miterlimit="10" opacity="0.2"/><path d="M382.24,456.53S369,495.7,366.11,507.22" fill="none" stroke="#000" stroke-miterlimit="10" opacity="0.2"/><path d="M343.65,500.88s13.53-27.36,32.54-51" fill="none" stroke="#000" stroke-miterlimit="10" opacity="0.2"/><line x1="359.77" y1="451.64" x2="332.42" y2="494.84" fill="none" stroke="#000" stroke-miterlimit="10" opacity="0.2"/><path d="M349.69,455.09s-25.34,23-33.69,28.51" fill="none" stroke="#000" stroke-miterlimit="10" opacity="0.2"/><path d="M350.27,445s-12.67,19.59-44.35,19.88" fill="none" stroke="#000" stroke-miterlimit="10" opacity="0.2"/><path d="M324.64,453.37s10.66,2.59,15.26,1.72" fill="none" stroke="#000" stroke-miterlimit="10" opacity="0.2"/><path d="M411.78,425.82l-3.62,5.66L390.88,421.4l4.6-7.2,15.7,9.16A1.76,1.76,0,0,1,411.78,425.82Z" fill="#2f2e41"/><path d="M411.78,425.82l-3.62,5.66L390.88,421.4l4.6-7.2,15.7,9.16A1.76,1.76,0,0,1,411.78,425.82Z" opacity="0.2"/><path d="M305.12,395.21a6.32,6.32,0,0,0-5,6.88s-2.19,18.78-15,14.4c0,0-4.07,4.07-6.57-1.25,0,0-3.76,0-3.76-4.38,0,0-4.69-.32-2.5-5.32,0,0-3.76-.63-.94-6.89,0,0,4.22-7.83,23-16.28Z" fill="#f9b499"/><path d="M545.81,581.46l-12.93-11.38a1.43,1.43,0,0,1-.24-1.86l3.55-5.32s33.45,29.22,61.48,38.51c0,0-5.3,6.71-48.76-23.67l-1.57,3.4A1,1,0,0,1,545.81,581.46Z" fill="#2f2e41"/><path d="M578.59,573.85l-2.86,5s-21.87-12.47-28.59-26.6l8.13-8.84,17.31,19.79A17.32,17.32,0,0,0,578.59,573.85Z" fill="#f9b499"/><path d="M578.59,573.85l21.2,15.9s-16.28-5.61-24.41-11.62Z" fill="#265CB1"/><path d="M578.59,573.85l21.2,15.9s-16.28-5.61-24.41-11.62Z" opacity="0.2"/><path d="M547.14,552.3s-9.54,0-10.95,10.6c0,0,36,31.8,61.48,38.51,0,0,5.65-6,2.12-11.66C599.79,589.75,559.86,575.62,547.14,552.3Z" fill="#265CB1"/><path d="M544.83,473.38l-4.31,7.39s-29.49-7.39-41.2-22.65Z" opacity="0.2"/><path d="M566.93,437.11l2.63-5.25a2.14,2.14,0,0,0-.86-2.81l-14.49-8.19-3.89,8.83Z" fill="#2f2e41"/><path d="M566.93,437.11l2.63-5.25a2.14,2.14,0,0,0-.86-2.81l-14.49-8.19-3.89,8.83Z" opacity="0.2"/><path d="M577,315.22l.29.44s.5,8.16-.25,27.43c0,0,.89,26.53-5.92,33.65,0,0,1.63-31.73-9.94-51.29Z" fill="#d1d3d4"/><path d="M566.93,428.2l-9.19-5.57a67.81,67.81,0,0,1,4.36-13.76q1-2.3,2.1-4.33Z" fill="#d1d3d4"/><path d="M666.43,341.75s-.61-3.33,7.58-8.79c0,0,14-13,8.19-22.45,0,0-1.82-2.13-3.94-1.52,0,0,.3-4.55-3.64-3.94,0,0,0-3.95-4.86-2.73,0,0-.3-7-6.67-.91L658.24,309l-.46,14a14.75,14.75,0,0,1-3.09,8.57L652.45,334Z" fill="#f9b499"/><path d="M670.24,318a2.6,2.6,0,0,1-2.39-.74,3.09,3.09,0,0,1-.49-3.55c1.13-2.24,3.71-6.67,7.26-8.66" fill="none" stroke="#f7a48b" stroke-miterlimit="10"/><path d="M667,314.75a3.13,3.13,0,0,1-3.21-1.52,3,3,0,0,1,.33-3.15l5.61-7.76" fill="none" stroke="#f7a48b" stroke-miterlimit="10"/><path d="M664.3,319.91l-3.94-11.83s6.5,0,5.69-3.45a2.93,2.93,0,0,0-2.17-2.11c-2.49-.61-7.76-1.21-9.59,4,0,0-3.47,14.36,1.94,19a2.35,2.35,0,0,1,.85,1.58c.1,1.15-.66,2.17-1.84,3.78" fill="#f9b499" stroke="#f7a48b" stroke-miterlimit="10"/><path d="M626.18,364.68,592,334l-8.27,36.43s40.81,32.31,50.21,25.94c0,0,3-.3,10-8.19l28.66-40.65a1.74,1.74,0,0,0-.51-2.48l-21-12.79a1,1,0,0,0-1.37.29l-22.18,32A1,1,0,0,1,626.18,364.68Z" fill="#265CB1"/><path d="M626.18,364.68,592,334l-8.27,36.43s40.81,32.31,50.21,25.94c0,0,3-.3,10-8.19l28.66-40.65a1.74,1.74,0,0,0-.51-2.48l-21-12.79a1,1,0,0,0-1.37.29l-22.18,32A1,1,0,0,1,626.18,364.68Z" opacity="0.2"/><path d="M580.19,393.35,592,334.06a3.57,3.57,0,0,0-1-3.29l-11-10.43s5,7.72,4.23,9.19c-.93,1.72-4.52,12.91-4.52,12.91s6.62,10,5.62,11.69l-5,25.32S580.45,385.69,580.19,393.35Z" fill="#265CB1"/><path d="M580.53,379.41l5.08-25.29a5,5,0,0,0-.72-3.81l-5.22-7.95,4.59-12.42A3.42,3.42,0,0,0,584,327l-6.75-11.34s.61,16.69-.91,24.27C576.33,339.93,580.48,362.39,580.53,379.41Z" fill="#265CB1"/><path d="M576,417.89l-9.1,10.31-2.73-23.66s5.31-10.67,6.37-27c0,0,8.19-10.92,3.64-37l2.12-.61S586,384.52,576,417.89Z" fill="#2f2e41"/><path d="M553.5,431.11s57.24,18.37,66.43,33.21c0,0,7.77,7.07-4.6,25.09l-42.75,73.84L545,543.46l35.57-61.56a2,2,0,0,0-1.11-2.88c-3.23-1-9.92-2.55-20.35-2.41a54.41,54.41,0,0,1-7.33-.42c-14.67-1.82-59.74-9.1-55.89-29.54Z" fill="#2f2e41"/><path d="M573.84,324.05s2.09-9.24,6.26-13.71c0,0-10.44-.9-14.31-17,0,0-3,3.88-6.86,0a8.47,8.47,0,0,1-6.28,3.15l-.58,4.9Z" fill="#f9b499"/><path d="M570,334.19l4.2-11.4-22.09-21.4a3.48,3.48,0,0,0-3.87,2.09s10.14,9.84,14.31,23.25Z" fill="#bcbec0"/><path d="M563,340.68l-10.22,13.77,9.83,53.89s19.78-37.72-.14-81.61c0,0-5.37-17.13-15.6-24.21l-2.75,3.14,3.94,22.82S547.7,331.63,563,340.68Z" fill="#265CB1"/><path d="M563,340.68l-10.22,13.77,9.83,53.89s19.78-37.72-.14-81.61c0,0-5.37-17.13-15.6-24.21l-2.75,3.14,3.94,22.82S547.7,331.63,563,340.68Z" fill="#fff" opacity="0.2"/><path d="M525.67,464.6s25.57-18.1,37-56.26l-9.83-53.89L563,340.68s-10.62-6.3-14.94-12.2l-3.94-22.82a74.69,74.69,0,0,0-10.62-1.18s-16.52-2-29.9,7.87l9.74,72.29a7.86,7.86,0,0,1-2.06,6.42c-5.88,6.25-21.32,21.69-39.15,31.84C472.17,422.9,488.3,446.5,525.67,464.6Z" fill="#265CB1"/><path d="M574.21,340.54,570,334.19l3.81-10.34,3.47,8.5c-.07,1.38-.2,2.86-.4,4.41-.15,1.11-.32,2.16-.51,3.17Z" fill="#2f2e41"/><path d="M575.51,318.48s2.06-5.76,4.59-8.14l-10.81-12.17S566.32,312.33,575.51,318.48Z" fill="#f7a48b"/><ellipse cx="581.89" cy="284.84" rx="17.29" ry="25.79" fill="#f9b499"/><path d="M597.69,274.56s8.65-11-5.07-16.1c0,0-5.37-8.35-24.74-8.65,0,0-9.54-1.79-16.7,3.88,0,0-9.84,5.37-9.54,14.61,0,0-6.56,8.05,5.37,21.46,0,0,3.87,2.69,3.87,6.56a8.2,8.2,0,0,0,8-3l7.75-6.86s6.86.3,9-7.45c0,0,5.07.3,9.84-5.37,0,0,6.62,1.07,9-6.38C594.48,267.28,595.9,268.89,597.69,274.56Z" fill="#2f2e41"/><ellipse cx="562.36" cy="289.17" rx="4.92" ry="5.96" fill="#f9b499"/><path d="M482.33,349.36c14.48-.23,57.77-3.52,57.11-34.65,0,0-1.84-20.93-41-.7a78.91,78.91,0,0,1-8.78,3.89c-9.42,3.5-30.86,12.2-38.74,21.6l-29.51,28.71,17.31,20.46s19.3-22.29,34.94-36A13.5,13.5,0,0,1,482.33,349.36Z" fill="#265CB1"/><path d="M482.33,349.36c14.48-.23,57.77-3.52,57.11-34.65,0,0-1.84-20.93-41-.7a78.91,78.91,0,0,1-8.78,3.89c-9.42,3.5-30.86,12.2-38.74,21.6l-29.51,28.71,17.31,20.46s19.3-22.29,34.94-36A13.5,13.5,0,0,1,482.33,349.36Z" opacity="0.2"/><path d="M425.23,346.37s14.92,22.87,3.47,45.28c0,0-12.91,26.39-18.89,30.87l-12-6.47s17.24-23.6,17.74-49.25c0,0,.84-15-3.51-26.11C412.06,340.69,423.43,352,425.23,346.37Z" fill="#d1d3d4"/><path d="M397.19,275.51A41.5,41.5,0,0,0,377,271.45,31.07,31.07,0,0,0,359.2,279a52.71,52.71,0,0,0-7,7.22l-.79,1-.4.49-.46.61a26.26,26.26,0,0,1-2,2.23,28.73,28.73,0,0,1-4.47,3.76,21.45,21.45,0,0,1-11,3.9,18,18,0,0,1-10.73-3,19.74,19.74,0,0,0,18.83-4.66,30,30,0,0,0,3.4-3.55c.52-.64,1-1.3,1.45-1.95l.31-.49.42-.59.83-1.17a45.86,45.86,0,0,1,7.72-8.41,34.14,34.14,0,0,1,10.06-5.88,30.94,30.94,0,0,1,5.69-1.49,29.33,29.33,0,0,1,5.84-.29A31.55,31.55,0,0,1,397.19,275.51Z" fill="#2f2e41"/><path d="M393.43,273.37a24.42,24.42,0,0,1-8.51,9.45,31.6,31.6,0,0,1-12.17,4.82,38.25,38.25,0,0,1-6.58.52,41.7,41.7,0,0,1-6.51-.61,46.92,46.92,0,0,1-12.21-3.95l-.37-.17,0,0a15.49,15.49,0,0,0-1.51-1c-.56-.3-1.14-.58-1.73-.84a21,21,0,0,0-3.69-1.23,18.49,18.49,0,0,0-4-.45,18.23,18.23,0,0,0-4.15.53,14,14,0,0,1,8.35-3,18.84,18.84,0,0,1,4.61.4,20.37,20.37,0,0,1,2.26.6,15.23,15.23,0,0,1,2.28.93l-.39-.19a78.17,78.17,0,0,0,11.45,2.49,55,55,0,0,0,5.71.5A51.25,51.25,0,0,0,372,282a40.77,40.77,0,0,0,21.46-8.64Z" fill="#2f2e41"/><path d="M420.29,335.43a53.29,53.29,0,0,1,7.23-8.55s-8.48-1.46-12.24-13.67c0,0-6.46,1.28-7.08-4.66l-5.44,5.29.26,8.08S414,327,420.29,335.43Z" fill="#f9b499"/><ellipse cx="392.44" cy="277.07" rx="5.01" ry="5.48" fill="#265CB1"/><path d="M397.13,326l-9.39,5s-18.4,23.49-24.24,50.56a10.46,10.46,0,0,1-4.75,6.73c-6.14,3.75-18.54,10.73-30.78,14.07,0,0-8.45,2.5-1.57,11.89,0,0,4.3,19.22,42,31a8.38,8.38,0,0,0,8.8-2.47c6.22-7.12,19.32-22.24,24.42-32.67,0,0,32.08-45.35-.44-91Z" fill="#265CB1"/><path d="M306.37,397.09l36-30.84a10.21,10.21,0,0,1,7.78-2.41c12,1.32,45.09,3.33,46.37-14.32,0,0,2.19-20.35-11.58-18.16l-40.37,6.26a36.65,36.65,0,0,0-15.65,11.27l-37.55,31.3Z" fill="#265CB1"/><path d="M420.29,335.43s2.78,9.66.58,11.86a33.09,33.09,0,0,1-8.81-6.6s-1.23-3.89-9.37-19.16C402.69,321.53,414.57,327.48,420.29,335.43Z" fill="#bcbec0"/><path d="M420.29,335.43s5.9,2.38,4.94,10.94a2,2,0,0,1-2.43,1.68,9.14,9.14,0,0,1-1.93-.76s2.35-3.94-1.38-12.9" fill="#a7a9ac"/><path d="M443,363c-2.71-.72-7.13-2.41-15.2-9.15,0,0-.87,2.06-2.55.89,0,0,7.77,17.56,14.52,16.55,0,0,1.72.57,4.36-6.06A1.66,1.66,0,0,0,443,363Z" fill="#2f2e41"/><path d="M443,363c-2.71-.72-7.13-2.41-15.2-9.15,0,0-.87,2.06-2.55.89,0,0,7.77,17.56,14.52,16.55,0,0,1.72.57,4.36-6.06A1.66,1.66,0,0,0,443,363Z" opacity="0.2"/><path d="M425.23,354.75s2.2,11.89,4.56,17.13a1.44,1.44,0,0,1-1.25,2c-2.54.13-6.56-.13-8.53-2.69a1.31,1.31,0,0,1-.26-.59C419.49,369.19,419,363.36,425.23,354.75Z" fill="#2f2e41"/><path d="M425.23,354.75s2.2,11.89,4.56,17.13a1.44,1.44,0,0,1-1.25,2c-2.54.13-6.56-.13-8.53-2.69a1.31,1.31,0,0,1-.26-.59C419.49,369.19,419,363.36,425.23,354.75Z" opacity="0.2"/><path d="M469.47,384.37l-22.72,3.21a3.75,3.75,0,0,1-3.43-1.86l-10.55-17.61A46.09,46.09,0,0,1,426.41,396l9.73,10.37s4.82,3.72,15.77,2.41l26.06-2S467.5,399.7,469.47,384.37Z" fill="#265CB1"/><path d="M486.65,398.35s-7.87,3.5-12.29-2.3c0,0-4.42-4.69-1.79-8.85Z" fill="#f7a48b"/><path d="M477.65,375.26s-14,.54-6.24,9.92C471.41,385.18,471,379.51,477.65,375.26Z" fill="#f7a48b"/><path d="M422,333a57.8,57.8,0,0,1,5.24-5.93l-12.5-14.92S413.59,325.94,422,333Z" fill="#f7a48b"/><ellipse cx="430.93" cy="303.82" rx="17.21" ry="24.41" fill="#f9b499"/><path d="M439.38,272.84s16.59,11.58,2.5,18.46c0,0-3.44,1.57-5.94-2.19,0,0-2.19,2.51-8.14,1.88,0,0-.63,2.19-4.69,3.13,0,0-.63,7.2-6.89,7.83l-13.46,11.89s-25.66-18.15-11.26-36C391.5,277.85,405.89,255.63,439.38,272.84Z" fill="#2f2e41"/><ellipse cx="412.93" cy="307.42" rx="5.16" ry="6.42" fill="#f9b499"/><path d="M401.47,410.43s32.59-44-.27-91.27L397.13,326l4,29,7.82,7.82-2.19,5.64c-.3,6.7-.89,13.92-1.88,21.59C404,397.37,402.79,404.16,401.47,410.43Z" fill="#265CB1"/><path d="M401.47,410.43s32.59-44-.27-91.27L397.13,326l4,29,7.82,7.82-2.19,5.64c-.3,6.7-.89,13.92-1.88,21.59C404,397.37,402.79,404.16,401.47,410.43Z" fill="#fff" opacity="0.2"/><path d="M427.53,348.23l4.78-2.41a1.09,1.09,0,0,1,1.51.55c1,2.44,3.11,8.47.7,12.14a.53.53,0,0,1-.77.13l-5.82-4.57A6.32,6.32,0,0,0,427.53,348.23Z" fill="#2f2e41"/><path d="M424.55,349a16.33,16.33,0,0,0-5-3.47,3,3,0,0,0-4,2.61c-.28,3.81-.42,12.7,4.37,11.5,0,0,2.88-.17,5.24-4.9C425.23,354.75,423.19,353.29,424.55,349Z" fill="#2f2e41"/><ellipse cx="426.24" cy="351.37" rx="2.36" ry="4.05" fill="#265CB1"/><path d="M285.09,416.49a12.2,12.2,0,0,0,6.64-6.11,7,7,0,0,0,.13-4.75c-.29-.95-.22-2.43,1.45-4.31" fill="none" stroke="#f7a48b" stroke-miterlimit="10"/><line x1="278.52" y1="415.24" x2="286.46" y2="407.12" fill="none" stroke="#f7a48b" stroke-miterlimit="10"/><line x1="274.76" y1="410.86" x2="281.57" y2="403.86" fill="none" stroke="#f7a48b" stroke-miterlimit="10"/><line x1="272.26" y1="405.54" x2="277.86" y2="399.42" fill="none" stroke="#f7a48b" stroke-miterlimit="10"/><path d="M496.37,390.31a6.25,6.25,0,0,1-3.28,4.81s-7.78,6.48-11.68,1.45c0,0-4.74.49-4-4.6a5,5,0,0,1-3.69-3.87s-5.71-1.6.48-10.18c0,0,7-9.1,16.75-1.1a17,17,0,0,1,4.24,5.68A12.66,12.66,0,0,1,496.37,390.31Z" fill="#f9b499"/><path d="M481.41,396.57a27.42,27.42,0,0,0,9-7" fill="none" stroke="#f7a48b" stroke-miterlimit="10"/><path d="M477.42,392s5.18-2.52,7.55-5.58" fill="none" stroke="#f7a48b" stroke-miterlimit="10"/><path d="M473.73,388.1s4.22-1.71,5.11-5.47" fill="none" stroke="#f7a48b" stroke-miterlimit="10"/></svg>